<svg  xmlns="http://www.w3.org/2000/svg">


    <symbol viewBox="0 0 53 38" id="logo">
    <g clip-path="url(#clip0)">
    <path d="M0 8.56477C0 6.10363 0.8 4.13472 2.4 2.46114C4.1 0.88601 6.1 0 8.6 0C11.2 0 13.2 0.689119 14.8 2.1658L13.6 3.93782C13 3.34715 12.2 2.95337 11.3 2.65803C10.4 2.36269 9.6 2.1658 8.7 2.1658C6.8 2.1658 5.3 2.75648 4.1 3.93782C3 5.21762 2.5 6.6943 2.5 8.56477C2.5 10.4352 3.1 12.0104 4.2 13.2902C5.4 14.5699 6.9 15.1606 8.8 15.1606C9.7 15.1606 10.7 14.9637 11.6 14.5699C12.5 14.1762 13.3 13.6839 14 12.9948L15.3 14.6684C13.5 16.4404 11.3 17.3264 8.7 17.3264C6.1 17.3264 4 16.5389 2.4 14.8653C0.8 13.0933 0 11.0259 0 8.56477Z" />
    <path d="M18.3 17.0311V0.295334H20.6V7.58031H29.4V0.295334H31.8V16.9326H29.4V9.64767H20.6V16.9326H18.3V17.0311Z" />
    <path d="M35.2 8.56477C35.2 6.20207 36 4.13472 37.7 2.46114C39.3 0.787565 41.4 0 43.9 0C46.4 0 48.5 0.787565 50.1 2.46114C51.8 4.13472 52.6 6.10363 52.6 8.56477C52.6 11.0259 51.8 13.0933 50.1 14.7668C48.4 16.4404 46.4 17.3264 43.9 17.3264C41.4 17.3264 39.3 16.4404 37.7 14.7668C36 13.0933 35.2 11.0259 35.2 8.56477ZM37.7 8.56477C37.7 10.4352 38.3 12.0104 39.5 13.2902C40.7 14.5699 42.2 15.1606 44 15.1606C45.8 15.1606 47.3 14.5699 48.5 13.2902C49.7 12.0104 50.3 10.4352 50.3 8.56477C50.3 6.79275 49.7 5.21762 48.5 4.03627C47.3 2.85492 45.8 2.1658 44 2.1658C42.2 2.1658 40.7 2.75648 39.5 4.03627C38.2 5.21762 37.7 6.6943 37.7 8.56477Z" />
    <path d="M0 29.2383C0 26.7772 0.8 24.8083 2.4 23.1347C4.1 21.5596 6.1 20.6736 8.6 20.6736C11.2 20.6736 13.2 21.3627 14.8 22.8394L13.6 24.6114C13 24.0207 12.2 23.6269 11.3 23.3316C10.4 23.0363 9.5 22.8394 8.7 22.8394C6.8 22.8394 5.3 23.43 4.1 24.6114C3 25.7927 2.4 27.3679 2.4 29.1399C2.4 31.0104 3 32.5855 4.1 33.8653C5.3 35.1451 6.8 35.7357 8.7 35.7357C9.6 35.7357 10.6 35.5389 11.5 35.1451C12.4 34.7513 13.2 34.2591 13.9 33.5699L15.2 35.2435C13.4 37.0155 11.2 37.9015 8.6 37.9015C6 37.9015 3.9 37.114 2.3 35.4404C0.8 33.7668 0 31.6995 0 29.2383Z" />
    <path d="M16.8 29.2383C16.8 26.7772 17.6 24.8083 19.2 23.1347C20.8 21.5596 22.9 20.6736 25.4 20.6736C28 20.6736 30 21.3627 31.6 22.8394L30.4 24.6114C29.8 24.0207 29 23.6269 28.1 23.3316C27.2 23.0363 26.3 22.8394 25.5 22.8394C23.6 22.8394 22.1 23.43 20.9 24.6114C19.8 25.7927 19.2 27.3679 19.2 29.1399C19.2 31.0104 19.8 32.5855 20.9 33.8653C22.1 35.1451 23.6 35.7357 25.5 35.7357C26.4 35.7357 27.4 35.5389 28.3 35.1451C29.2 34.7513 30 34.2591 30.7 33.5699L32 35.2435C30.2 37.0155 28 37.9015 25.4 37.9015C22.8 37.9015 20.7 37.114 19.1 35.4404C17.6 33.7668 16.8 31.6995 16.8 29.2383Z" />
    <path d="M33.6 29.2383C33.6 26.8756 34.4 24.8083 36.1 23.1347C37.7 21.4611 39.8 20.6736 42.3 20.6736C44.8 20.6736 46.9 21.4611 48.5 23.1347C50.1 24.8083 51 26.7772 51 29.2383C51 31.6995 50.2 33.7668 48.5 35.4404C46.8 37.114 44.8 38 42.3 38C39.8 38 37.7 37.114 36.1 35.4404C34.4 33.7668 33.6 31.6995 33.6 29.2383ZM36 29.2383C36 31.1088 36.6 32.6839 37.8 33.9637C39 35.2435 40.5 35.8342 42.3 35.8342C44.1 35.8342 45.6 35.2435 46.8 33.9637C48 32.6839 48.6 31.1088 48.6 29.2383C48.6 27.4663 48 25.8912 46.8 24.7098C45.6 23.5285 44.1 22.8394 42.3 22.8394C40.5 22.8394 39 23.43 37.8 24.7098C36.6 25.8912 36 27.3679 36 29.2383Z" />
    </g>
    <defs>
    <clipPath id="clip0">
    <rect width="52.6" height="38"/>
    </clipPath>
    </defs>
    </symbol>


  <symbol id="phone" viewBox="0 0 14 15">
    <g clip-path="url(#clip0)">
    <path d="M13.7455 13.0923C13.4909 13.5935 12.9818 13.8441 12.4727 14.0947C11.8364 14.4706 11.3273 14.5959 10.6909 14.5959C9.8 14.5959 8.90909 14.22 8.14545 13.9694C7.50909 13.7188 7 13.4682 6.36364 13.2176C4.58182 12.09 2.54545 10.0853 1.52727 8.45643C1.14545 7.82996 0.890909 7.32878 0.636364 6.70231C0.381818 5.82525 0 5.07349 0 4.07113C0 3.44466 0.127273 2.81819 0.509091 2.19172C0.763636 1.69054 1.01818 1.18936 1.52727 0.938771C1.90909 0.938771 2.54545 0.813477 2.92727 0.813477C3.05455 0.813477 3.05455 0.813477 3.18182 0.813477C3.43636 0.938771 3.56364 1.31465 3.69091 1.56524C3.94545 2.19172 4.32727 2.69289 4.58182 3.31936C4.83636 3.56995 5.09091 3.82054 5.09091 4.07113C5.09091 4.6976 3.30909 5.57466 3.30909 6.07584C3.30909 6.32643 3.56364 6.70231 3.69091 6.9529C4.70909 8.70702 5.98182 9.95997 7.76364 10.9623C8.01818 11.0876 8.4 11.3382 8.65455 11.3382C9.16364 11.3382 10.0545 9.58408 10.6909 9.58408C10.9455 9.58408 11.2 9.83467 11.4545 10.0853C11.9636 10.4611 12.6 10.7117 13.1091 11.0876C13.3636 11.2129 13.7455 11.3382 13.8727 11.5888C13.8727 11.7141 13.8727 11.7141 13.8727 11.8394C14 12.09 13.8727 12.7164 13.7455 13.0923Z"/>
    </g>
    <defs>
      <clipPath id="clip0">
        <rect width="14" height="13.7824" transform="translate(0 0.813477)"/>
      </clipPath>
    </defs>
</symbol>


  <symbol id="car" viewBox="0 0 41 41">
    <path d="M6.84767 16.6328L9.01168 14.9016H9.22808C9.87729 14.9016 10.3101 14.4688 10.3101 13.8196C10.3101 13.3868 10.0937 13.1704 9.87729 12.954V8.40961H8.79528V12.954C8.36248 13.1704 8.14608 13.3868 8.14608 13.8196V14.036L5.98207 15.7672L6.84767 16.6328Z"/>
    <path d="M39.7406 28.3185V21.3936C39.7406 19.2296 38.875 18.364 38.875 18.364C38.875 18.364 36.711 15.5508 35.4126 13.8196C34.1142 12.0884 32.383 12.0884 32.383 12.0884H25.0254V11.0064C25.0254 9.49159 23.9434 8.40959 22.4285 8.40959H16.1529C14.6381 6.24558 12.0413 4.73077 9.22809 4.73077C4.46727 4.73077 0.788452 8.62599 0.788452 13.3868C0.788452 15.3344 1.43765 17.0656 2.51966 18.5804V28.1021C2.51966 29.6169 3.60166 30.6989 5.11647 30.6989H6.19848V30.9153C6.19848 33.5121 8.36249 35.6761 10.9593 35.6761C13.5561 35.6761 15.7201 33.5121 15.7201 30.9153C15.7201 30.6989 15.7201 30.6989 15.7201 30.6989H22.2121H22.4285C23.0777 30.6989 24.5926 30.6989 26.5402 30.6989V30.9153C26.5402 33.5121 28.7042 35.6761 31.301 35.6761C33.8978 35.6761 36.0618 33.5121 36.0618 30.9153C36.0618 30.6989 36.0618 30.6989 36.0618 30.6989C36.2782 30.6989 36.4946 30.6989 36.4946 30.6989C40.1734 30.9153 39.7406 28.3185 39.7406 28.3185ZM38.6586 20.7444C38.6586 20.7444 38.6586 20.9608 38.6586 21.3936H30.219C29.7862 21.3936 29.3534 20.9608 29.3534 20.528V17.0656C29.3534 16.6328 29.7862 16.2 30.219 16.2H35.8454C36.4946 16.8492 37.1438 17.7148 37.5766 18.364C38.6586 19.6624 38.6586 20.7444 38.6586 20.7444ZM9.22809 6.02918C13.3397 6.02918 16.8021 9.27519 16.8021 13.6032C16.8021 17.9312 13.3397 20.9608 9.22809 20.9608C5.11647 20.9608 1.87046 17.4984 1.87046 13.3868C1.87046 9.27519 5.11647 6.02918 9.22809 6.02918ZM10.7429 34.5941C8.79529 34.5941 7.28048 33.0793 7.28048 31.1317C7.28048 29.1841 8.79529 27.6693 10.7429 27.6693C12.6905 27.6693 14.2053 29.1841 14.2053 31.1317C14.2053 33.0793 12.6905 34.5941 10.7429 34.5941ZM15.0709 29.6169C14.4217 27.8857 12.6905 26.3709 10.7429 26.3709C8.79529 26.3709 7.06408 27.6693 6.41488 29.6169H4.90007C4.25087 29.6169 3.60166 28.9677 3.60166 28.3185V19.6624C5.11647 20.9608 7.06408 21.8264 9.22809 21.8264C13.9889 21.8264 17.6677 17.9312 17.6677 13.3868C17.6677 12.0884 17.2349 10.79 16.8021 9.708H22.4285C23.0777 9.708 23.7269 10.3572 23.7269 11.0064V28.3185C23.7269 28.9677 23.0777 29.6169 22.4285 29.6169H15.0709ZM31.0846 34.5941C29.137 34.5941 27.6222 33.0793 27.6222 31.1317C27.6222 29.1841 29.137 27.6693 31.0846 27.6693C33.0322 27.6693 34.547 29.1841 34.547 31.1317C34.547 33.0793 33.0322 34.5941 31.0846 34.5941ZM36.4946 29.8333H35.629C34.9798 27.8857 33.2486 26.5873 31.301 26.5873C29.137 26.5873 27.4058 27.8857 26.973 29.8333H24.809C25.2418 29.4005 25.4582 28.9677 25.4582 28.3185V12.954C25.4582 12.954 30.219 12.954 32.1666 12.954C34.1142 12.954 34.9798 14.2524 34.9798 14.2524C34.9798 14.2524 34.7634 14.6852 35.1962 15.118H30.219C29.137 15.118 28.4878 15.9836 28.4878 16.8492V20.3116C28.4878 21.3936 29.3534 22.0428 30.219 22.0428H38.875C38.875 23.7741 38.875 26.3709 38.875 27.6693C38.6586 30.0497 36.4946 29.8333 36.4946 29.8333Z" />
  </symbol>


  <symbol id="leaf" viewBox="0 0 41 41">
  <path d="M6.68662 24.4709C6.68662 24.9568 6.92954 25.4426 6.92954 25.9284C6.92954 27.8718 7.17246 31.0297 7.17246 31.0297H8.38704C8.38704 31.0297 8.38704 25.9284 7.65829 23.2563C6.92954 20.3413 6.68662 14.9971 8.38704 11.1104L7.17246 10.6246C7.17246 10.6246 5.71495 13.5396 5.71495 18.1551C5.71495 21.0701 5.95787 22.2847 6.20078 23.4992C5.22911 22.7705 2.55701 20.3413 2.79993 15.24C3.28577 9.41001 8.38704 4.06581 8.38704 4.06581C8.38704 4.06581 17.375 12.5679 9.35872 22.0417L10.3304 22.7705C10.3304 22.7705 13.9742 18.6409 13.9742 14.0254C13.9742 9.41001 12.0308 5.52332 8.38704 2.36539C8.38704 2.36539 2.07118 8.43834 1.58534 15.7259C1.34243 22.5276 6.4437 24.9568 6.4437 24.9568L6.68662 24.4709Z" />
  <path d="M19.3183 18.1551C10.3304 20.8272 10.8162 29.5722 11.0591 31.5156C7.9012 34.6735 6.4437 37.5885 6.4437 37.5885L7.41537 38.0743C16.6462 22.7705 30.9784 25.6855 30.9784 25.6855V24.4709C22.2334 23.4993 16.1604 26.9001 12.0308 30.301C11.7879 27.143 13.2454 19.6126 22.4763 18.8838C33.1647 18.6409 38.2659 24.9568 38.2659 24.9568C32.6788 33.9447 26.363 35.1593 22.4763 35.6452C18.3467 36.3739 13.2454 33.4589 13.2454 33.4589L12.7596 34.4306C12.7596 34.4306 17.1321 37.3456 22.7192 36.8597C34.8651 35.4022 39.4805 24.7138 39.4805 24.7138C38.2659 22.2847 29.278 15.7259 19.3183 18.1551Z" />
  </symbol>


  <symbol id="ruler" viewBox="0 0 41 41">
    <path d="M12.5679 9.16711C12.5679 9.65294 13.5396 10.1388 14.9971 10.1388C16.4546 10.1388 17.4263 9.65294 17.4263 9.16711C17.4263 8.68127 16.4546 8.19543 14.9971 8.19543C13.7825 8.19543 12.5679 8.43835 12.5679 9.16711Z" />
    <path d="M38.8031 18.1551C38.8031 15.7259 36.8597 13.7825 34.4306 13.7825H33.4589H12.0821C12.0821 13.7825 6.25207 14.0254 3.57998 9.41001C3.82289 6.00916 6.49499 3.57998 9.89584 3.57998H19.6126C23.2563 3.57998 25.9284 6.49499 25.9284 9.89584V11.1104H27.143V10.1388C27.143 5.76624 23.7422 2.36539 19.3696 2.36539H10.1388C5.76624 2.36539 2.36539 5.76624 2.36539 10.1388V13.2967V13.7825V21.5559C2.36539 25.9284 5.76624 29.3293 10.1388 29.3293H11.8392V28.1147H9.89584C6.25207 28.1147 3.57998 25.1997 3.57998 21.7988V13.7825V13.2967V11.5963C4.30873 12.5679 6.73791 14.9971 11.8392 14.9971C19.1267 14.9971 33.216 14.9971 33.216 14.9971H34.4306C36.131 14.9971 37.3456 16.2117 37.3456 17.9121V19.3696V19.8555C37.3456 21.5559 36.131 22.7705 34.4306 22.7705H34.1876H18.8838C16.4546 22.7705 14.5113 24.7138 14.5113 27.143V33.7018C14.5113 36.131 16.4546 38.0743 18.8838 38.0743H34.4306C36.8597 38.0743 38.8031 36.131 38.8031 33.7018V27.143C38.8031 27.143 38.8031 21.313 38.8031 19.6126C38.8031 19.6126 38.8031 19.6126 38.8031 19.3696V18.1551V18.1551ZM37.3456 34.1876C37.3456 35.8881 36.131 37.1027 34.4306 37.1027H18.6409C16.9405 37.1027 15.7259 35.8881 15.7259 34.1876V27.143C15.7259 25.4426 16.9405 24.228 18.6409 24.228H23.2563V28.3576H24.4709V24.228H30.058H32.2443V28.3576H33.4589V24.228H34.4306C35.6451 24.228 36.8597 23.7422 37.5885 23.0134V34.1876H37.3456Z" />
  </symbol>

  <symbol viewBox="0 0 68 69" id="human">
    <path d="M62.03 19.665C62.72 18.975 63.41 18.285 63.755 17.595C66.17 14.49 65.825 13.11 63.41 11.04C60.995 8.97 57.2 12.075 57.2 12.075C57.2 12.075 56.855 12.42 56.51 12.765C52.715 9.315 47.885 6.555 42.365 5.175C40.295 2.07 37.19 0 33.74 0C29.945 0 26.84 2.415 24.77 5.52C20.285 6.9 16.145 9.315 12.695 12.42C12.005 12.075 10.625 10.695 8.9 10.35C6.485 10.005 4.07 11.73 3.725 14.145C3.725 15.525 5.105 17.595 6.83 19.665C3.725 24.495 2 30.015 2 36.225C2 53.82 16.49 68.31 34.43 68.31C40.64 68.31 46.85 66.585 51.68 63.48L50.645 61.065C46.16 49.68 47.195 42.435 47.54 38.985C48.575 35.19 52.37 30.015 54.44 27.255C55.82 25.53 57.89 23.805 59.96 21.735C62.72 25.875 64.1 30.705 64.1 36.225C64.1 44.16 60.65 51.405 55.475 56.925L57.545 58.65C63.41 52.785 66.86 44.85 66.86 36.225C66.86 30.015 65.135 24.495 62.03 19.665ZM33.74 2.76C38.225 2.76 41.675 6.9 41.675 12.075C41.675 17.25 38.225 21.39 33.74 21.39C29.255 21.39 25.805 17.595 25.805 12.075C25.805 6.555 29.255 2.76 33.74 2.76ZM33.74 24.15C39.605 24.15 44.435 18.63 44.435 12.075C44.435 10.695 44.09 9.66 43.745 8.28C47.885 9.66 51.335 11.73 54.44 14.49C51.68 16.905 47.54 20.01 45.47 21.39C42.365 23.805 37.19 26.22 33.05 26.22C28.91 26.22 26.84 24.495 23.735 23.115C20.975 21.735 16.49 16.56 14.42 14.49C17.18 12.075 20.285 10.35 23.39 8.97C23.39 10.005 23.045 11.04 23.045 12.075C23.045 18.975 27.875 24.15 33.74 24.15ZM4.76 36.225C4.76 31.05 6.14 26.22 8.555 21.735C9.245 22.425 9.59 22.77 9.59 22.77C9.59 22.77 18.215 32.775 19.94 35.19C21.665 37.605 19.595 39.33 18.215 45.54C17.18 50.37 17.18 56.925 17.18 60.03C9.59 54.51 4.76 45.885 4.76 36.225ZM58.235 19.665C56.855 21.045 52.025 25.185 47.885 31.74C43.745 38.295 44.435 43.47 44.78 47.265C45.125 51.06 46.16 54.51 46.505 55.89C46.85 56.925 48.23 60.72 48.575 61.755C44.435 63.825 39.605 65.205 34.775 65.205C29.255 65.205 24.425 63.825 19.94 61.41C19.94 49.68 20.63 47.955 20.975 46.23C20.975 44.505 22.01 41.055 23.045 38.295C23.735 35.88 22.7 33.81 21.665 32.775C20.63 31.74 10.625 19.665 8.9 17.25C6.83 14.835 6.485 13.8 8.21 13.11C9.935 12.075 14.42 17.595 16.49 20.01C18.215 22.425 26.15 28.98 33.395 28.635C40.64 28.29 45.815 24.495 47.885 23.115C49.61 21.735 58.58 14.49 59.96 13.455C61.34 12.42 63.065 13.455 62.72 14.49C62.375 15.525 59.615 18.285 58.235 19.665Z" />
  </symbol>


  <symbol viewBox="0 0 68 68" id="smile">
  <path d="M34 2C16.4314 2 2 16.4314 2 34C2 51.5686 16.4314 66 34 66C51.5686 66 66 51.5686 66 34C66 16.4314 51.5686 2 34 2ZM34 63.4902C17.6863 63.4902 4.5098 50.3137 4.5098 34C4.5098 17.6863 17.6863 4.5098 34 4.5098C50.3137 4.5098 63.4902 17.6863 63.4902 34C63.4902 50.3137 50.3137 63.4902 34 63.4902Z" />
  <path d="M34 50.6275C23.0196 50.6275 16.4314 40.902 16.4314 40.902L14.2353 42.4706C23.0196 53.7647 34 53.451 34 53.451C34 53.451 44.9804 54.0785 53.7647 42.4706L51.5686 40.902C51.5686 40.902 44.9804 50.6275 34 50.6275Z" />
  <path d="M23.3333 37.451C30.8627 34 32.1176 29.6078 32.1176 27.4118C32.1176 24.902 30.549 22.0784 27.7255 22.0784C24.5882 22.0784 23.3333 23.6471 23.3333 23.6471C23.3333 23.6471 22.0784 22.0784 18.9412 22.0784C16.1176 22.0784 14.549 25.2157 14.549 27.4118C14.549 29.6078 15.8039 34 23.3333 37.451ZM23.3333 26.7843C24.902 24.2745 29.2941 23.9608 29.6078 27.098C29.6078 31.4902 23.3333 34.6275 23.3333 34.6275C23.3333 34.6275 17.0588 31.4902 17.0588 27.098C17.3725 23.9608 21.7647 24.2745 23.3333 26.7843Z" />
  <path d="M44.6667 37.451C52.1961 34 53.451 29.6078 53.451 27.7255C53.451 25.2157 51.8824 22.3922 49.0588 22.3922C45.9216 22.3922 44.6667 23.9608 44.6667 23.9608C44.6667 23.9608 43.4118 22.3922 40.2745 22.3922C37.451 22.3922 35.8824 25.5294 35.8824 27.7255C35.8824 29.6078 37.1373 34 44.6667 37.451ZM44.6667 26.7843C46.2353 24.2745 50.6274 23.9608 50.9412 27.098C50.9412 31.4902 44.6667 34.6274 44.6667 34.6274C44.6667 34.6274 38.3922 31.4902 38.3922 27.098C38.7059 23.9608 43.098 24.2745 44.6667 26.7843Z"/>
  </symbol>


  <symbol viewBox="0 0 68 68" id="hand">
    <path d="M51.9372 15.4497C45.9103 15.4497 38.1614 19.7547 38.4484 28.6515C38.4484 28.6515 26.6816 24.9206 23.2377 37.2614C23.2377 37.2614 21.2287 32.9565 18.6457 30.9475C15.7758 28.9385 12.3318 23.7726 12.0448 21.1896C12.3318 19.7547 12.6188 19.7547 13.1928 19.4677C13.4798 19.4677 13.4798 21.7636 16.0628 22.0506C18.3587 21.7636 18.9327 21.1896 19.7937 20.0417L22.3767 17.1717C22.3767 17.1717 24.9596 13.7278 22.6637 12.0058C20.6547 9.99681 16.9238 6.26587 12.3318 7.12686C9.74888 7.70085 7.73991 9.70982 7.73991 9.70982L4.29596 12.8668C4.29596 12.8668 2 15.1627 2 19.7547C2 23.7726 2.86099 30.3735 2.86099 30.3735C2.86099 30.3735 3.72197 35.5394 4.00897 37.2614C4.29596 38.9834 6.59193 49.0282 12.0448 54.4811C15.4888 58.4991 17.4978 60.221 19.2197 60.508C22.0897 60.508 23.5247 58.7861 25.8206 58.7861C28.1166 58.7861 30.4126 60.508 35.2915 60.508C40.1704 60.508 51.0762 57.6381 55.6682 43.5753C59.9731 41.8533 66 38.6964 66 29.2255C66 19.7547 57.6771 15.4497 51.9372 15.4497ZM53.9462 41.8533C50.7892 54.4811 40.7444 57.9251 35.8655 58.4991C31.2735 58.4991 28.6906 56.7771 25.2466 56.7771C23.2377 56.7771 20.3677 58.4991 19.5067 58.4991C18.6457 58.4991 16.3498 56.4901 13.4798 53.3331C10.6099 50.1762 9.46188 47.3062 8.3139 45.0103C7.16592 42.7143 5.15695 33.5304 5.15695 33.5304C5.15695 33.5304 4.29596 24.3466 4.29596 20.3287C4.29596 16.5977 6.01794 14.3017 6.01794 14.3017C6.01794 14.3017 8.3139 12.2928 10.6099 10.2838C13.1928 8.27484 16.3498 9.70982 16.3498 9.70982C16.3498 9.70982 19.5067 11.7188 20.6547 12.8668C22.0897 14.0148 20.6547 15.1627 20.6547 15.1627C20.6547 15.1627 17.4978 19.1807 16.3498 19.4677C14.9148 19.7547 14.6278 16.3107 14.6278 16.3107C13.1928 16.8847 10.8969 17.4587 10.0359 20.0417C9.17489 23.1986 13.7668 29.7995 17.2108 32.9565C20.3677 36.1134 22.3767 41.2793 22.3767 41.2793L24.9596 40.4183C24.9596 40.4183 24.6726 34.3914 29.8386 31.2345C35.5785 28.0775 40.7444 32.3825 40.7444 32.3825C39.0224 18.0327 51.6502 17.7457 52.5112 17.7457C53.3722 17.7457 63.417 18.6067 64.278 28.6515C63.704 40.1313 53.9462 41.8533 53.9462 41.8533Z" />
  </symbol>


  <symbol id="vk" viewBox="0 0 20 20">
    <g clip-path="url(#clip0)"> 
    <path d="M19.891 14.6049C19.891 14.5504 19.8365 14.4959 19.8365 14.4959C19.5095 13.8965 18.8011 13.079 17.8202 12.2071C17.3842 11.7711 17.1117 11.4986 17.0027 11.3351C16.7847 11.0627 16.7302 10.7902 16.8392 10.5177C16.9482 10.2997 17.2207 9.86376 17.7657 9.15531C18.0381 8.77384 18.2561 8.50136 18.4196 8.28338C19.6185 6.703 20.1635 5.66757 20 5.23161L19.9455 5.12261C19.891 4.95913 19.782 4.90463 19.6185 4.85013C19.455 4.79564 19.2371 4.79564 18.9646 4.85013H15.9673C15.9128 4.85013 15.8583 4.85013 15.7493 4.85013C15.6403 4.85013 15.6403 4.90463 15.6403 4.90463H15.5858L15.5313 4.95913C15.4768 4.95913 15.4768 5.01362 15.4223 5.06812C15.3678 5.12261 15.3678 5.17711 15.3134 5.23161C14.9864 6.04904 14.6049 6.86648 14.2234 7.57493C13.951 8.0109 13.733 8.39237 13.515 8.71934C13.297 9.04632 13.1335 9.2643 12.97 9.42779C12.8065 9.59128 12.6975 9.70027 12.5886 9.80926C12.4796 9.91825 12.3706 9.91825 12.3161 9.91825C12.2616 9.91825 12.2071 9.86376 12.1526 9.86376C12.0436 9.80926 11.9891 9.70027 11.9346 9.59128C11.8801 9.48229 11.8256 9.3733 11.8256 9.20981C11.8256 9.04632 11.7711 8.88283 11.7711 8.77384C11.7711 8.66485 11.7711 8.50136 11.7711 8.28338C11.7711 8.06539 11.7711 7.90191 11.7711 7.84741C11.7711 7.57493 11.7711 7.30245 11.7711 6.97548C11.7711 6.6485 11.7711 6.43052 11.7711 6.26703C11.7711 6.10354 11.7711 5.88556 11.7711 5.66757C11.7711 5.44959 11.7711 5.2861 11.7166 5.17711C11.7166 5.06812 11.6621 4.95913 11.6076 4.85013C11.5531 4.74114 11.4986 4.63215 11.3896 4.57766C11.2807 4.52316 11.1717 4.46866 11.0627 4.41417C10.6812 4.30518 10.2452 4.30518 9.64578 4.30518C8.33788 4.30518 7.52044 4.35967 7.13896 4.57766C6.97548 4.63215 6.86648 4.74114 6.75749 4.90463C6.6485 5.06812 6.59401 5.12261 6.703 5.17711C7.13896 5.23161 7.41144 5.39509 7.57493 5.61308L7.62943 5.72207C7.68392 5.83106 7.73842 5.99455 7.79292 6.21253C7.84741 6.43052 7.84741 6.703 7.90191 6.97548C7.9564 7.46594 7.9564 7.90191 7.90191 8.28338C7.84741 8.66485 7.84741 8.93733 7.79292 9.10082C7.73842 9.3188 7.73842 9.48229 7.62943 9.59128C7.57493 9.70027 7.52044 9.80926 7.52044 9.80926C7.52044 9.86376 7.46594 9.86376 7.46594 9.86376C7.35695 9.91825 7.30245 9.91825 7.19346 9.91825C7.08447 9.91825 6.97548 9.86376 6.86649 9.75477C6.703 9.64577 6.59401 9.53678 6.43052 9.3733C6.26703 9.20981 6.10354 8.99182 5.94005 8.66485C5.77657 8.33787 5.55858 8.0109 5.3406 7.57493L5.17711 7.24795C5.06812 7.02997 4.90463 6.75749 4.74114 6.37602C4.57766 5.99455 4.41417 5.66757 4.25068 5.2861C4.19619 5.17711 4.08719 5.06812 3.9782 4.95913H3.92371C3.86921 4.90463 3.81471 4.90463 3.76022 4.85013C3.70572 4.85013 3.59673 4.79564 3.54223 4.79564H0.708447C0.381471 4.79564 0.163488 4.90463 0.0544959 5.01362V5.06812C0 5.12261 0 5.17711 0 5.23161C0 5.2861 0 5.39509 0.0544959 5.50409C0.490463 6.48501 0.92643 7.41144 1.41689 8.33787C1.90736 9.2643 2.34332 9.97275 2.6703 10.5177C3.05177 11.0627 3.37875 11.6076 3.76022 12.0981C4.14169 12.5886 4.35967 12.9155 4.52316 13.0245C4.63215 13.188 4.74114 13.2425 4.79564 13.3515L5.06812 13.624C5.23161 13.7875 5.50409 14.0054 5.77657 14.2234C6.10354 14.4414 6.43052 14.6594 6.86649 14.9319C7.24796 15.1499 7.73842 15.3678 8.22888 15.4768C8.77384 15.6403 9.2643 15.6948 9.75477 15.6403H10.9537C11.1717 15.6403 11.3896 15.5313 11.4986 15.4223L11.5531 15.3678C11.6076 15.3133 11.6076 15.2589 11.6076 15.1499C11.6076 15.0409 11.6621 14.9864 11.6621 14.8774C11.6621 14.6049 11.6621 14.3324 11.7166 14.0599C11.7711 13.842 11.8256 13.624 11.8801 13.515C11.9346 13.406 12.0436 13.297 12.0981 13.188C12.2071 13.079 12.2616 13.079 12.2616 13.0245C12.3161 13.0245 12.3161 12.97 12.3706 12.97C12.5341 12.9155 12.752 12.97 12.97 13.1335C13.188 13.297 13.406 13.515 13.624 13.733C13.842 13.951 14.0599 14.2234 14.3324 14.5504C14.6049 14.8229 14.8774 15.0954 15.0409 15.2044L15.2589 15.3133C15.4223 15.4223 15.5858 15.4768 15.8038 15.5313C16.0218 15.5858 16.2398 15.6403 16.4033 15.5858L19.0736 15.5313C19.346 15.5313 19.564 15.4768 19.673 15.4223C19.8365 15.3133 19.891 15.2589 19.9455 15.1499C20 15.0409 20 14.9319 19.9455 14.7684C19.9455 14.7684 19.9455 14.6594 19.891 14.6049Z"/>
    </g>
    <defs>
    <clipPath id="clip0">
    </clipPath>
    </defs>
  </symbol>


  <symbol id="fb" viewBox="0 0 20 20">
    <path d="M20 18.9101C20 19.5095 19.5095 20 18.9101 20H13.7875V12.2616H16.4033L16.7847 9.26431H13.7875V7.35695C13.7875 6.48501 14.0054 5.88556 15.2589 5.88556H16.8392V3.16076C16.5668 3.10627 15.6403 3.05177 14.4959 3.05177C12.2071 3.05177 10.6267 4.46866 10.6267 7.02997V9.26431H8.0109V12.2616H10.6267V20H1.08992C0.490463 20 0 19.5095 0 18.9101V1.08992C0 0.490463 0.490463 0 1.08992 0H18.9101C19.5095 0 20 0.490463 20 1.08992V18.9101Z"/>
  </symbol>

  <symbol id="in" viewBox="0 0 20 20">
    <path d="M17.6022 0H2.39782C1.08992 0 0 1.03542 0 2.34332V17.6567C0 18.9646 1.08992 20 2.39782 20H17.6022C18.9101 20 20 18.9646 20 17.6567V2.34332C20 1.03542 18.9101 0 17.6022 0ZM14.3869 3.10627C14.3869 2.77929 14.6594 2.50681 14.9864 2.50681H16.8937C17.2207 2.50681 17.4932 2.77929 17.4932 3.10627V4.95913C17.4932 5.2861 17.2207 5.55858 16.8937 5.55858H15.0409C14.7139 5.55858 14.4414 5.2861 14.4414 4.95913L14.3869 3.10627ZM10.0272 6.15804C12.1526 6.15804 13.8965 7.84741 13.8965 9.97275C13.8965 12.0981 12.1526 13.7875 10.0272 13.7875C7.90191 13.7875 6.15804 12.0981 6.15804 9.97275C6.15804 7.90191 7.90191 6.15804 10.0272 6.15804ZM18.0926 17.4932C18.0926 17.8202 17.8202 18.0926 17.4932 18.0926H2.50681C2.17984 18.0926 1.90736 17.8202 1.90736 17.4932V8.11989H4.35967C4.0327 8.61035 3.92371 9.48229 3.92371 10.0272C3.92371 13.3515 6.6485 16.0763 10.0272 16.0763C13.406 16.0763 16.1308 13.3515 16.1308 10.0272C16.1308 9.48229 16.0763 8.61035 15.6403 8.11989H18.1471L18.0926 17.4932Z"/>
  </symbol>


  <symbol id="tw" viewBox="0 0 20 20">
   <g clip-path="url(#clip0)">
    <path d="M19.455 2.01613C18.6376 2.5066 17.7657 2.83357 16.8392 3.05155C16.0763 2.23412 15.0409 1.74365 13.842 1.74365C11.5531 1.74365 9.75477 3.65101 9.75477 5.93984C9.75477 6.26681 9.80926 6.59379 9.86376 6.92076C6.43052 6.70278 3.43324 5.01341 1.41689 2.4521C1.08992 3.05155 0.871935 3.8145 0.871935 4.57744C0.871935 6.04883 1.58038 7.30224 2.7248 8.06518C2.07084 8.06518 1.41689 7.84719 0.871935 7.52022V7.62921C0.871935 9.64556 2.28883 11.3894 4.14169 11.7709C3.81471 11.8799 3.43324 11.9344 3.05177 11.9344C2.77929 11.9344 2.50681 11.9344 2.28883 11.8799C2.83379 13.5693 4.30518 14.7682 6.10354 14.8227C4.68665 15.9671 2.94278 16.621 0.980926 16.621C0.653951 16.621 0.326975 16.621 0 16.5665C1.79837 17.7654 3.9782 18.4739 6.26703 18.4739C13.842 18.4739 17.9292 12.0434 17.9292 6.4848C17.9292 6.32131 17.9292 6.10332 17.9292 5.93984C18.7466 5.34038 19.455 4.63194 20 3.76C19.2916 4.08698 18.4741 4.30496 17.6567 4.41395C18.4741 3.8145 19.1281 2.99706 19.455 2.01613Z" />
    </g>
    <defs>
    <clipPath id="clip0">
    <rect width="20" height="20"/>
    </clipPath>
    </defs>
  </symbol>

  <symbol id="composition" viewBox="0 0 46 46">
  <path d="M44.6903 7.1641L38.8069 1.27893C37.9858 0.457505 36.8943 0 35.7301 0C34.5659 0 33.4641 0.457505 32.6429 1.27893C31.7802 2.14195 31.3436 3.29611 31.3644 4.46067C30.2002 4.43987 29.0464 4.87658 28.1837 5.7396C27.3209 6.60262 26.8843 7.75678 26.9051 8.92134C25.7409 8.89015 24.5871 9.33725 23.7244 10.2003C22.8616 11.0633 22.425 12.2175 22.4458 13.382C21.2816 13.3612 20.1278 13.7979 19.2651 14.6609L4.71265 29.2179L0.315736 33.6162C0.191001 33.7306 0.0974494 33.8865 0.0454764 34.0529C0.0454764 34.0737 0.0350818 34.0841 0.0350818 34.1049C-0.0272858 34.344 -0.00649662 34.5832 0.0974494 34.7911C0.118239 34.8431 0.149422 34.8847 0.170212 34.9367C0.305341 35.1343 0.502839 35.2902 0.752309 35.363L4.31766 36.382L5.33633 39.9485C5.42988 40.2916 5.70014 40.5619 6.05355 40.6659L9.6189 41.6849L10.6376 45.2514C10.7103 45.5009 10.8663 45.6985 11.0741 45.8336C11.1157 45.8648 11.1573 45.8856 11.2093 45.9064C11.3444 45.9688 11.4899 46 11.6355 46C11.729 46 11.8226 45.9896 11.9265 45.9584C12.1136 45.9064 12.2695 45.8128 12.3943 45.6777L16.7912 41.2794L23.1007 34.9679C23.2254 35.0927 23.371 35.1759 23.5373 35.2278C23.9011 35.3318 24.2961 35.2382 24.5663 34.9679L32.0816 27.4503C32.487 27.0448 32.487 26.3897 32.0816 25.9842L31.9881 25.8906C32.4247 25.1731 32.6325 24.3517 32.6222 23.5303C33.7863 23.5511 34.9401 23.1144 35.8029 22.2514C36.6656 21.3883 37.1022 20.2342 37.0814 19.0696C38.2456 19.1008 39.3994 18.6537 40.2622 17.7907C41.1249 16.9277 41.5615 15.7735 41.5407 14.609C42.7049 14.6297 43.8587 14.193 44.7215 13.33C45.5426 12.5086 46 11.4064 46 10.2419C45.9688 9.0877 45.5218 7.98553 44.6903 7.1641ZM12.1344 42.9638L11.4484 40.5411C11.3548 40.198 11.0845 39.9277 10.7311 39.8237L7.16578 38.8151L6.14711 35.2486C6.05356 34.9055 5.7833 34.6352 5.42988 34.5312L3.00794 33.8449L5.42988 31.4222L14.5459 40.5411L12.1344 42.9638ZM24.4208 32.1501L21.9781 20.8476C21.8533 20.2862 21.3024 19.9326 20.7411 20.047C20.1798 20.1718 19.8264 20.7229 19.9407 21.2844L22.4043 32.6908L16.022 39.075L6.90591 29.9561L19.9927 16.8653L29.8468 26.7224L24.4208 32.1501ZM43.2246 11.8639C42.5282 12.5606 41.468 12.7373 40.5948 12.2902C40.1998 12.0927 39.7113 12.1655 39.3994 12.4878C39.0876 12.8101 39.0044 13.2884 39.2019 13.6835C39.6385 14.5674 39.4618 15.6279 38.7758 16.3142C38.0897 17.0005 37.0191 17.1876 36.1459 16.7405C35.7509 16.5429 35.2624 16.6157 34.9505 16.9381C34.6387 17.25 34.5555 17.7387 34.753 18.1338C35.1896 19.0176 35.0129 20.0782 34.3269 20.7645C33.6304 21.4611 32.5702 21.6379 31.697 21.1908C31.302 20.9932 30.8135 21.066 30.5017 21.3883C30.1898 21.7003 30.1067 22.189 30.3042 22.5841C30.5744 23.1352 30.616 23.7486 30.4289 24.3101L21.6662 15.5448C22.2276 15.368 22.8408 15.3992 23.3917 15.6695C23.7867 15.8671 24.2753 15.7943 24.5871 15.472C24.899 15.1496 24.9821 14.6713 24.7846 14.2762C24.348 13.3924 24.5248 12.3318 25.2108 11.6456C25.8968 10.9593 26.9675 10.7722 27.8406 11.2193C28.2356 11.4168 28.7242 11.344 29.036 11.0217C29.3479 10.7098 29.431 10.2211 29.2335 9.82595C28.7969 8.94213 28.9736 7.88155 29.6597 7.1953C30.3561 6.49864 31.4164 6.32188 32.2895 6.76899C32.6845 6.96655 33.1731 6.89376 33.4849 6.57143C33.7967 6.25949 33.8799 5.7708 33.6824 5.37568C33.2458 4.49186 33.4225 3.43128 34.1086 2.74503C34.5452 2.30832 35.1169 2.07957 35.7301 2.07957C36.3434 2.07957 36.9151 2.31872 37.3517 2.74503L43.2246 8.6302C43.6612 9.06691 43.8899 9.63879 43.8899 10.2523C43.8899 10.8553 43.6508 11.4376 43.2246 11.8639Z" />
  </symbol>

  <symbol id="grape" viewBox="0 0 24 24">
 <path d="M16.443 12.7139C18.6035 11.225 18.0963 7.51466 15.5084 6.80076C15.3252 6.7491 14.5973 6.77728 14.508 6.69274C14.3624 6.55184 14.2732 5.88022 14.1605 5.67356C13.8364 5.07708 13.3198 4.59802 12.7139 4.30683C11.4458 3.69626 9.91467 3.95928 8.97064 5.01603C8.05948 3.7855 6.47201 3.40976 5.10058 4.072C4.49001 4.36319 3.96398 4.83755 3.62582 5.41994C3.45205 5.72053 3.32524 6.0446 3.25479 6.38746C3.17494 6.79607 3.27827 7.1718 3.24539 7.57102C3.22191 7.84812 3.28766 7.79176 2.98708 7.90448C2.818 7.97023 2.65361 8.05008 2.49393 8.14401C2.14637 8.35536 1.84578 8.63247 1.60156 8.95654C1.13659 9.5765 0.897057 10.3608 0.92054 11.1358C0.929934 11.488 1.00038 11.8403 1.1225 12.1738C1.19295 12.3663 1.28688 12.5542 1.39021 12.7327C1.43717 12.8078 1.5452 12.9205 1.56868 12.9957C1.63913 13.2117 1.63913 13.0379 1.5358 13.2446C1.33854 13.6297 0.9769 13.9068 0.803123 14.3295C0.62465 14.7569 0.54011 15.2172 0.544806 15.6822C0.549503 16.119 0.63874 16.5511 0.80782 16.9503C0.887664 17.1428 1.01917 17.3072 1.10371 17.4951C1.17416 17.6501 1.23052 17.636 1.19295 17.7675C1.17416 17.8286 0.911147 18.0211 0.873574 18.0634C0.300579 18.6974 -0.00470432 19.5334 -7.64548e-06 20.3741C0.0140824 22.1918 1.50762 23.7135 3.34872 23.6195C4.17533 23.5773 4.97377 23.2109 5.54207 22.6051C5.62661 22.5158 5.85674 22.079 5.95537 22.0462C6.03522 22.0227 6.44383 22.234 6.52837 22.2575C6.96046 22.3702 7.41604 22.3843 7.85753 22.3045C8.67944 22.1589 9.43091 21.6892 9.91937 21.0129C10.0556 20.8297 10.1307 20.5996 10.2622 20.4211C10.2951 20.3788 10.3186 20.2004 10.3609 20.1769C10.3796 20.1675 10.6661 20.2614 10.7272 20.2708C11.2063 20.3648 11.7088 20.3413 12.1832 20.2098C12.681 20.0689 13.146 19.8059 13.5264 19.4536C13.6297 19.355 13.9444 18.8477 14.0571 18.8055C14.1839 18.7632 14.6113 18.9511 14.7616 18.9698C15.7573 19.0779 16.7671 18.6833 17.4528 17.9601C18.9323 16.382 18.4203 13.6391 16.443 12.7139C16.5699 12.6246 16.6967 12.5401 16.8235 12.4509C16.6967 12.5401 16.5699 12.6246 16.443 12.7139ZM13.8035 9.35106C13.9209 9.21485 14.0383 9.05517 14.1182 8.89548C14.1464 8.84851 14.1699 8.80155 14.1933 8.74988C14.3061 8.51975 14.4 8.28491 14.4564 8.03599C14.5362 7.69313 14.4657 7.64616 14.8039 7.61329C15.128 7.58511 15.5178 7.74479 15.7855 7.90448C16.3256 8.22855 16.6779 8.79215 16.8188 9.39802C16.955 9.9898 16.8939 10.6379 16.6121 11.1781C16.4618 11.4693 16.2458 11.7229 15.9828 11.9154C15.8935 11.9812 15.1092 12.3569 15.1092 12.2724C15.1092 12.2583 15.1092 12.2395 15.1092 12.2254C15.1139 12.1174 15.1092 12 15.0998 11.892C15.0998 11.8732 15.0951 11.8591 15.0951 11.8403C15.0951 11.8403 15.0951 11.8356 15.0951 11.8309C14.9965 10.8728 14.508 9.9945 13.7143 9.44029C13.7472 9.41681 13.7753 9.38393 13.8035 9.35106C13.8176 9.33697 13.7753 9.38393 13.8035 9.35106C13.9209 9.21485 13.7753 9.38393 13.8035 9.35106ZM13.7378 10.746C13.7472 10.7554 13.7519 10.7648 13.7565 10.7741C13.874 10.9385 13.9632 11.117 14.0383 11.3002C14.0477 11.3237 14.0524 11.3424 14.0618 11.3659C14.0665 11.3753 14.0665 11.3847 14.0712 11.3941C14.0759 11.4082 14.0806 11.4223 14.0853 11.4364C14.137 11.5867 14.1605 11.7464 14.1839 11.9013C14.1839 11.9248 14.1886 11.9436 14.1886 11.9671C14.1886 11.9765 14.1886 11.9906 14.1933 12C14.1933 12.0235 14.198 12.0422 14.198 12.0657C14.198 12.0704 14.198 12.0751 14.198 12.0798C14.2074 12.2818 14.2027 12.5213 14.137 12.7139C14.1323 12.7327 14.1323 12.7514 14.1276 12.7655C13.7941 13.5734 13.2775 14.292 12.371 14.4845C11.8074 14.6066 11.1264 14.5033 10.6567 14.1511C10.6192 14.1276 10.5816 14.0994 10.5487 14.0759C9.5859 13.3432 9.40743 12.0235 9.98042 10.9902C10.5722 9.91935 11.6524 9.60468 12.7702 9.98041C12.7937 9.9898 12.8172 10.0039 12.8407 10.0133C12.8642 10.0227 12.8877 10.0368 12.9111 10.0462C12.9158 10.0462 12.9205 10.0509 12.9252 10.0509C12.991 10.0837 13.0567 10.1213 13.1178 10.1636C13.1742 10.2012 13.2305 10.2387 13.2869 10.281C13.3385 10.3186 13.3855 10.3608 13.4325 10.4078C13.4419 10.4172 13.4513 10.4219 13.456 10.4313C13.5217 10.483 13.7143 10.7178 13.7378 10.746C13.7425 10.7554 13.7096 10.7084 13.7378 10.746ZM8.81565 11.2532C8.78747 11.3565 8.76398 11.4646 8.7452 11.5679C8.07827 11.5867 7.49119 11.2908 7.03091 10.8258C6.74441 10.5111 6.54715 10.126 6.45792 9.708C6.02113 8.56202 7.08257 7.1718 8.14872 6.90409C8.02661 8.07356 8.56672 9.27121 9.52954 9.95223C9.19608 10.328 8.95185 10.7788 8.81565 11.2579C8.83443 11.1922 8.85322 11.1264 8.87201 11.0559C8.85322 11.1264 8.83443 11.1875 8.81565 11.2532C8.78747 11.3565 8.95185 10.7695 8.81565 11.2532ZM9.49667 14.3436C8.96594 14.7194 8.48688 15.3017 8.30371 15.9358C8.22856 15.917 8.15342 15.8982 8.07827 15.87C7.86692 15.7996 7.63678 15.7855 7.41604 15.7808C7.3268 15.7808 7.23757 15.7808 7.14833 15.7855C7.07788 15.7996 7.01213 15.8043 6.94168 15.8043C6.88531 15.809 6.82895 15.8137 6.77729 15.8278C6.77259 15.8278 6.7679 15.8278 6.7679 15.8278C6.74441 15.8372 6.72093 15.8419 6.69745 15.8419C5.93189 15.4239 5.42465 14.5597 5.46692 13.6814V13.6767C5.46692 13.6532 5.46692 13.6297 5.47162 13.6062C5.47162 13.6015 5.47162 13.6015 5.47162 13.5968C5.47162 13.5781 5.47631 13.5593 5.47631 13.5452V13.5405C5.48101 13.4747 5.48571 13.3855 5.50449 13.3197C5.51858 13.2305 5.54207 13.1413 5.56555 13.0567C5.56555 13.052 5.56555 13.052 5.57025 13.0473C5.57025 13.0426 5.57494 13.0379 5.57494 13.0332C5.62191 12.8736 5.69236 12.7327 5.76281 12.5824C5.80038 12.5166 5.83796 12.4509 5.88492 12.3851C6.00704 12.1972 6.16203 12.0282 6.3405 11.8873C6.39216 11.8356 6.44383 11.7933 6.50958 11.7604C6.52837 11.7464 6.54715 11.7323 6.56594 11.7229C6.58003 11.7135 6.59412 11.7041 6.60821 11.6994C7.1859 12.2113 7.92328 12.4931 8.69353 12.4931H8.70762C8.72171 12.6716 8.7405 12.9299 8.82504 13.0943C8.83443 13.1272 8.84383 13.1601 8.85792 13.1976C8.85792 13.2023 8.86261 13.2023 8.86261 13.207C8.87201 13.2399 8.8861 13.2728 8.89549 13.3104C9.027 13.6861 9.23365 14.0383 9.49667 14.3436ZM9.33698 6.09626C9.33698 6.09157 9.34167 6.08687 9.34167 6.08217V6.07748C10.4595 4.02973 13.6016 4.94558 13.6297 7.21407C13.6297 7.21877 13.6297 7.22346 13.6297 7.22816V7.23286C13.6297 7.77767 13.4419 8.3037 13.1131 8.7311C13.1084 8.73579 13.1084 8.73579 13.1037 8.74049C13.0286 8.83912 12.9393 8.92836 12.8501 9.0129C12.2301 8.81094 11.3753 8.77337 10.7742 9.07395C10.6849 9.10683 10.3421 9.32757 10.2669 9.32288C10.1448 9.31818 9.95694 9.11622 9.8724 9.04577C9.59999 8.81564 9.38395 8.51975 9.24304 8.19098C9.24304 8.18628 9.23835 8.18158 9.23835 8.18158C8.95655 7.51466 9.0223 6.65986 9.31819 6.11505C9.29471 6.17141 9.29941 6.16202 9.33698 6.09626C9.33698 6.09157 9.26653 6.22777 9.33698 6.09626ZM6.41095 4.64029C7.25166 4.64029 8.02191 5.11935 8.42113 5.87082C8.41643 5.88022 8.41643 5.88491 8.41173 5.89431C8.40704 5.9037 8.40234 5.91779 8.39764 5.92718C6.7585 6.08217 5.50449 7.54753 5.48101 9.17258C5.29314 9.09274 5.10997 8.97532 4.95498 8.83912C4.9362 8.82503 4.92211 8.81094 4.90332 8.79685C3.21252 7.52405 4.40547 4.64029 6.41095 4.64029ZM3.63991 8.67943C3.64461 8.68413 3.64461 8.68883 3.64931 8.69352C3.70567 8.79215 3.79021 8.94714 3.87475 9.03168C3.88884 9.05047 3.89823 9.06456 3.91232 9.08335C3.92171 9.09274 3.93111 9.10683 3.9405 9.11622C3.95459 9.13031 3.96398 9.1491 3.97807 9.16319C4.227 9.46378 4.55577 9.75027 4.91271 9.92405C5.10058 10.0227 5.48101 10.0696 5.62661 10.2012C5.7769 10.3327 5.87553 10.807 5.99295 10.9949C5.83326 11.0935 5.67827 11.2203 5.54676 11.3565C5.53737 11.3612 5.53267 11.3706 5.52328 11.3753C5.50919 11.3894 5.4998 11.3988 5.48571 11.4129C5.26966 11.6289 5.09119 11.8779 4.94089 12.1503C4.94089 12.155 4.9362 12.1597 4.9362 12.1597C4.88923 12.1972 4.86575 12.2442 4.86575 12.2959C4.85635 12.3194 4.84226 12.3428 4.83287 12.3663C4.83287 12.3663 4.83287 12.3663 4.83287 12.371C4.79999 12.4415 4.77181 12.5166 4.74363 12.5918C4.72015 12.6528 4.69197 12.7186 4.68258 12.7843C4.67788 12.8031 4.67318 12.8219 4.66849 12.8407C4.66379 12.8595 4.65909 12.8783 4.6544 12.897C4.6544 12.9017 4.6497 12.9111 4.6497 12.9158C4.645 12.9299 4.64031 12.944 4.64031 12.9581C4.64031 12.9628 4.64031 12.9628 4.64031 12.9675C4.61682 13.0708 4.60743 13.1788 4.57925 13.2822C4.57925 13.2869 4.57925 13.2869 4.57925 13.2869V13.2916C4.57925 13.2963 4.57925 13.301 4.57925 13.301V13.3104C4.55577 13.315 4.52759 13.3197 4.5041 13.3244C4.32563 13.3526 4.13306 13.3667 3.94989 13.3479H3.9452C3.92171 13.3479 3.90293 13.3432 3.87944 13.3432C3.87475 13.3432 3.87005 13.3432 3.86535 13.3432C3.67749 13.3197 3.48962 13.2728 3.31115 13.2023C3.22661 13.1695 3.14676 13.1319 3.06692 13.0896C3.02465 13.0614 2.98238 13.0379 2.94011 13.0192C2.91663 13.0051 2.89314 12.991 2.86966 12.9722C2.85087 12.9581 2.83209 12.9487 2.818 12.9346C2.818 12.9346 2.818 12.9346 2.8133 12.9346C2.76633 12.897 2.72406 12.8642 2.6771 12.8266C1.23991 11.6289 1.78473 9.08335 3.63991 8.67943C3.63052 8.66534 3.236 8.76867 3.17964 8.78276C3.33463 8.74049 3.48962 8.71231 3.63991 8.67943C3.64461 8.68413 2.60195 8.90487 3.63991 8.67943ZM2.36242 13.7518C2.52211 13.8599 2.83678 14.09 3.03404 14.09C3.31584 14.1933 3.63052 14.2638 3.93111 14.2779C4.0814 14.2873 4.25987 14.3013 4.41017 14.2685C4.52289 14.198 4.57925 14.1933 4.57925 14.2497C4.6544 14.7334 4.83757 15.3205 5.16633 15.6963C5.31193 15.8982 5.47631 16.0814 5.66418 16.2458L5.66888 16.2505C5.19921 16.5417 4.30684 17.3119 4.30684 17.9319C4.19882 17.9601 4.0814 17.9835 3.96868 17.9929C3.95929 17.9929 3.94989 17.9929 3.9405 17.9976C1.6861 18.2043 0.629346 15.1139 2.36242 13.7518C2.36712 13.7565 2.15107 13.9773 2.11819 13.9538C2.11819 13.9538 2.43287 13.7002 2.36242 13.7518C2.44226 13.8035 1.79882 14.198 2.36242 13.7518ZM3.19843 22.7178C2.01017 22.7178 1.09901 21.7738 0.958114 20.6231C0.89236 20.083 0.995687 19.5241 1.28218 19.0591C1.3996 18.8665 1.61565 18.5237 1.83639 18.4485C2.09471 18.3593 2.57377 18.6974 2.87905 18.8008C3.21721 18.8994 3.58825 18.9511 3.9405 18.9182C4.00156 18.9135 4.05792 18.9088 4.11897 18.9041C4.09549 19.3033 4.14715 19.7354 4.28336 20.1111C4.33502 20.2755 4.39608 20.454 4.48532 20.5996C4.60743 20.8391 4.76242 21.0927 4.95498 21.2853C5.18982 21.5577 5.218 21.5436 4.98316 21.8442C4.84696 22.018 4.69197 22.1683 4.51349 22.2951C4.12837 22.5722 3.66809 22.7178 3.19843 22.7178ZM9.5859 19.4677C9.5859 19.4724 9.5859 19.4724 9.5859 19.4677C9.29471 21.2477 7.10606 22.0556 5.78629 20.7968C5.19451 20.2286 4.84696 19.3925 5.06301 18.58C5.26966 17.8145 5.89901 16.9033 6.7585 16.7765C7.1859 16.6638 8.05009 16.6262 8.39764 16.9738C8.39764 16.9738 8.39764 16.9738 8.40234 16.9738C9.28531 17.4575 9.74089 18.5565 9.5906 19.4348C9.59529 19.3925 9.5953 19.4019 9.5859 19.4677C9.5859 19.4724 9.60469 19.3409 9.5859 19.4677ZM11.3331 19.416C11.0607 19.416 10.7882 19.3644 10.5346 19.2657C10.544 19.1389 10.5487 18.9933 10.5346 18.8665C10.5252 18.7303 10.5064 18.5941 10.483 18.4579C10.4783 18.4297 10.4736 18.4015 10.4642 18.3734C10.4642 18.3734 10.4642 18.3734 10.4642 18.3687C10.4595 18.3452 10.4548 18.317 10.4454 18.2935C10.4454 18.2888 10.4454 18.2888 10.4454 18.2888C10.328 17.8567 10.0931 17.1194 9.69392 16.8516C9.67514 16.8282 9.65635 16.8094 9.63757 16.7906C9.62817 16.7812 9.61878 16.7671 9.60939 16.7577C9.46849 16.6074 9.3088 16.4759 9.14441 16.3585C9.14441 16.3538 9.14911 16.3491 9.14911 16.3444C9.15381 16.3303 9.1585 16.3162 9.1632 16.3021C9.20547 16.1612 9.27122 16.0109 9.34637 15.8794C9.4497 15.6822 9.5859 15.499 9.74559 15.344C9.75968 15.3299 9.76907 15.3205 9.78316 15.3064C9.79725 15.2923 9.80665 15.283 9.82074 15.2736C9.83013 15.2642 9.83952 15.2548 9.85361 15.2454C9.85831 15.2407 9.86301 15.236 9.8724 15.2313C9.88179 15.2219 9.89588 15.2125 9.90528 15.2031C10.0039 15.1139 10.1213 15.0387 10.2387 14.973C10.746 15.2923 11.319 15.452 11.9201 15.452C11.9201 15.4567 11.9201 15.4661 11.9201 15.4708C11.892 15.9405 11.9577 16.4102 12.1174 16.8516C12.2066 17.0959 12.4509 17.744 12.7092 17.8755C12.7139 17.8849 12.7233 17.8943 12.7327 17.899C12.7468 17.9178 12.7609 17.9319 12.7749 17.946C12.8689 18.0493 12.9675 18.1479 13.0755 18.2372C13.2775 18.3076 13.2916 18.4015 13.1272 18.5237C13.0567 18.6974 12.7984 18.8712 12.6528 18.9792C12.263 19.261 11.8074 19.416 11.3331 19.416ZM15.1139 18.0775C13.6861 18.0775 12.6387 16.6826 12.8548 15.3111C13.2728 15.1796 13.8035 14.9354 14.0806 14.5831C14.1135 14.5503 14.1464 14.5221 14.1746 14.4892C14.1792 14.4845 14.1839 14.4798 14.1886 14.4751C14.2309 14.4329 14.2732 14.3859 14.3108 14.3389C14.3248 14.3248 14.3342 14.3107 14.3483 14.2967C14.353 14.292 14.3577 14.2873 14.3624 14.2779C14.4329 14.1933 14.5268 14.0806 14.5785 13.982C14.6959 13.7988 14.8039 13.6015 14.8791 13.3996C14.8837 13.3855 14.8884 13.3761 14.8931 13.362C16.2035 13.2352 17.3495 14.3436 17.3965 15.6305C17.4434 16.8939 16.4149 18.0775 15.1139 18.0775Z" />
<path d="M20.4446 6.74915C20.191 6.74915 19.9844 6.5425 19.9844 6.28888C19.9844 6.03527 20.191 5.82861 20.4446 5.82861C20.6983 5.82861 20.9049 6.03527 20.9049 6.28888C20.9049 6.5425 20.6983 6.74915 20.4446 6.74915Z" />
<path d="M23.8027 7.83875C23.3894 6.13856 22.1542 4.68729 20.1252 3.51782C20.4164 3.07633 21.9241 0.187874 20.8532 0.00939999C20.2004 -0.0986235 20.2051 1.03797 20.083 1.43719C19.8763 2.11821 19.571 2.77104 19.1296 3.33464C18.2748 4.45715 16.8517 5.0912 15.4568 5.0912C15.0622 5.06772 14.8227 5.56556 15.0857 5.86145C15.2689 6.06341 15.5789 6.02114 15.8278 6.00705C16.7296 5.95069 17.636 5.66419 18.4063 5.19453C17.5186 8.49159 19.7025 10.9573 22.3045 12.6247C22.3092 12.6294 22.3139 12.6294 22.3186 12.6341C22.3937 12.681 22.5018 12.7045 22.591 12.6951C22.5957 12.6951 22.6051 12.6951 22.6145 12.6904C22.6333 12.6904 22.6474 12.6857 22.6661 12.681C22.6943 12.6763 22.7225 12.6622 22.7507 12.6528C22.7554 12.6528 22.7554 12.6481 22.7601 12.6481C22.7648 12.6481 22.7648 12.6435 22.7695 12.6435C22.8352 12.6106 22.8916 12.5636 22.9339 12.5026C22.9339 12.5026 22.9386 12.4979 22.9386 12.4932C22.9902 12.4086 24.4086 10.3327 23.8027 7.83875C23.3894 6.13856 24.4086 10.3327 23.8027 7.83875ZM22.6521 11.0043C22.4078 10.22 22.1589 9.43562 21.8912 8.65598C21.7644 8.28024 21.6047 7.36439 21.1115 7.30803C20.3084 7.21879 20.7452 8.17691 20.8767 8.54325C21.1773 9.37926 21.4403 10.2341 21.708 11.0795C20.6701 10.2763 19.6791 9.26654 19.2845 7.98435C18.8994 6.74443 19.2094 5.49511 19.6744 4.32564C22.1166 5.73464 23.7652 8.13934 22.6521 11.0043C22.2669 9.77848 22.6521 11.0043 22.6521 11.0043Z" />
  </symbol>
  
  <symbol id="nut" viewBox="0 0 32 32">
  <path d="M25.8897 9.77338C25.7746 9.60552 25.5396 9.56715 25.3765 9.68225C25.2086 9.79736 25.1703 10.0324 25.2854 10.1954C26.5707 12.0228 27.2518 14.1235 27.2518 16.277C27.2518 19.0635 26.1055 21.759 24.0192 23.8741C22.446 25.4664 20.4221 26.6559 18.1679 27.3321C17.717 26.9676 17.4436 26.2434 17.3189 25.0492C17.7794 25.476 18.3933 25.7398 19.0647 25.7398C19.8465 25.7398 20.5803 25.3849 21.0647 24.7806C21.1271 24.7854 21.1894 24.7854 21.2518 24.7854C22.6667 24.7854 23.8225 23.6343 23.8225 22.2146C23.8225 21.9988 23.7986 21.7926 23.7458 21.5863C24.4221 21.3082 25.0216 20.8477 25.4628 20.2626C26 19.5528 26.283 18.7038 26.283 17.8118C26.283 16.9245 25.9952 16.0659 25.4676 15.3609C25.9808 14.8813 26.2782 14.205 26.2782 13.4856C26.2782 12.229 25.3861 11.1835 24.187 10.9628C24.1583 9.82134 23.3861 8.84772 22.3022 8.55036C21.9472 7.28417 20.7866 6.39209 19.4532 6.39209C18.7962 6.39209 18.1871 6.60791 17.6978 6.97242C17.9712 6.32494 18.3453 5.77818 18.7962 5.41847C20.9784 6.18106 22.9113 7.43285 24.3933 9.07314C24.5324 9.22662 24.7626 9.23621 24.9161 9.10192C25.0695 8.96763 25.0791 8.73261 24.9448 8.57914C22.7242 6.1283 19.5635 4.4976 16.048 4.0036C16.0144 3.9988 15.9808 3.9988 15.9424 4.0036C12.6523 4.46882 9.63549 5.94604 7.44844 8.16187C5.22302 10.4161 4 13.2986 4 16.277C4 19.2554 5.22302 22.1379 7.44844 24.3921C9.63549 26.6079 12.6523 28.0851 15.9472 28.5504C15.9664 28.5552 15.9808 28.5552 16 28.5552C16.0192 28.5552 16.0336 28.5552 16.0528 28.5504C19.3429 28.0851 22.3597 26.6079 24.5516 24.3921C26.7722 22.1379 28 19.2554 28 16.277C27.9904 13.9748 27.2662 11.7254 25.8897 9.77338ZM19.4532 7.13549C20.518 7.13549 21.4341 7.89329 21.6307 8.93405C21.6595 9.08273 21.7794 9.20264 21.9281 9.22662C22.7722 9.3753 23.3957 10.0803 23.4388 10.9341C22.8537 10.9916 22.307 11.2506 21.8849 11.6727C21.741 11.8165 21.741 12.0516 21.8849 12.1954C21.9568 12.2674 22.0528 12.3058 22.1439 12.3058C22.2398 12.3058 22.3309 12.2674 22.4029 12.1954C22.7482 11.8501 23.2086 11.6583 23.6978 11.6583C23.7074 11.6583 23.717 11.6583 23.7218 11.6535C23.741 11.6583 23.7554 11.6583 23.7746 11.6583C24.7578 11.7014 25.5252 12.5024 25.5252 13.4856C25.5252 13.994 25.3141 14.4688 24.9544 14.8141C24.211 14.1187 23.2326 13.735 22.2014 13.735C21.9952 13.735 21.8321 13.8981 21.8321 14.1043C21.8321 14.3106 21.9952 14.4736 22.2014 14.4736C23.0935 14.4736 23.9329 14.8189 24.5659 15.452C24.5851 15.4712 24.6043 15.4856 24.6235 15.5C24.6379 15.524 24.6523 15.5432 24.6667 15.5624C25.2326 16.1811 25.5396 16.9772 25.5396 17.8165C25.5396 18.5456 25.3094 19.241 24.8681 19.8261C24.5036 20.3058 24.0096 20.6847 23.458 20.9101C22.9976 20.1379 22.1679 19.6535 21.247 19.6535C20.5612 19.6535 19.9137 19.9221 19.4293 20.4065C19.2854 20.5504 19.2854 20.7854 19.4293 20.9293C19.5731 21.0731 19.8082 21.0731 19.952 20.9293C20.2974 20.5839 20.7578 20.3921 21.247 20.3921C21.9856 20.3921 22.6475 20.8285 22.9353 21.5096C23.0312 21.735 23.0791 21.9748 23.0791 22.2194C23.0791 23.1499 22.3837 23.9173 21.482 24.0324C21.5779 23.759 21.6307 23.4664 21.6307 23.1691C21.6307 22.9628 21.4676 22.7998 21.2614 22.7998C21.0552 22.7998 20.8921 22.9628 20.8921 23.1691C20.8921 23.5336 20.7866 23.8837 20.5851 24.1811C20.2446 24.6894 19.6739 24.9964 19.0647 24.9964C18.0576 24.9964 17.2326 24.1763 17.2326 23.1643C17.2326 22.6559 17.4388 22.1811 17.8082 21.8309C17.9472 21.7014 17.9616 21.4856 17.8465 21.3369C17.4436 20.8237 17.2326 20.205 17.2326 19.5528C17.2326 18.6511 17.6403 17.8165 18.3501 17.2602C18.3549 17.2554 18.3549 17.2554 18.3597 17.2506C18.8729 16.8525 19.4868 16.6415 20.1391 16.6415C20.3453 16.6415 20.5084 16.4784 20.5084 16.2722C20.5084 16.0659 20.3453 15.9029 20.1391 15.9029C19.4245 15.9029 18.7482 16.1043 18.1583 16.488C17.5731 15.8597 17.2374 15.0204 17.2374 14.1475C17.2374 13.2362 17.5923 12.3825 18.2302 11.735C18.2302 11.735 18.2302 11.7302 18.235 11.7302C18.8825 11.0779 19.7506 10.7134 20.6715 10.7134C20.8777 10.7134 21.0408 10.5504 21.0408 10.3441C21.0408 10.1379 20.8777 9.97482 20.6715 9.97482C19.6595 9.97482 18.7098 10.3297 17.952 10.982C17.5012 10.5647 17.2374 9.97482 17.2374 9.35132C17.2374 8.13309 18.2302 7.13549 19.4532 7.13549ZM4.73861 16.277C4.73861 13.4904 5.88489 10.795 7.97122 8.67986C9.39568 7.23621 11.1942 6.1235 13.1942 5.42326C13.6451 5.78297 14.024 6.32494 14.2926 6.97242C13.8034 6.61271 13.1942 6.39688 12.5372 6.39688C11.2038 6.39688 10.0432 7.28897 9.68825 8.55516C8.60432 8.85252 7.83213 9.82614 7.80336 10.9676C6.60432 11.193 5.71223 12.2386 5.71223 13.4904C5.71223 14.205 6.00959 14.8813 6.52278 15.3657C5.9952 16.0707 5.70743 16.9245 5.70743 17.8165C5.70743 17.9029 5.71223 17.994 5.71703 18.0803C5.73141 18.2818 5.90887 18.44 6.11031 18.4257C6.31175 18.4113 6.47002 18.2386 6.45564 18.0324C6.45084 17.9604 6.45084 17.8885 6.45084 17.8165C6.45084 16.982 6.76259 16.1811 7.32374 15.5624C7.34293 15.5432 7.35731 15.524 7.36691 15.5C7.38609 15.4856 7.40528 15.4712 7.42446 15.452C8.05755 14.8189 8.89688 14.4736 9.78897 14.4736C9.9952 14.4736 10.1583 14.3106 10.1583 14.1043C10.1583 13.8981 9.9952 13.735 9.78897 13.735C8.753 13.735 7.77938 14.1187 7.02158 14.8189C6.66187 14.4784 6.45084 13.9988 6.45084 13.4904C6.45084 12.5072 7.21823 11.7062 8.20144 11.6631C8.22062 11.6631 8.23501 11.6583 8.2542 11.6583C8.26379 11.6631 8.27338 11.6631 8.27818 11.6631C8.76739 11.6631 9.22782 11.8549 9.57314 12.2002C9.64508 12.2722 9.74101 12.3106 9.83213 12.3106C9.92806 12.3106 10.0192 12.2722 10.0911 12.2002C10.235 12.0564 10.235 11.8213 10.0911 11.6775C9.66906 11.2554 9.1223 10.9964 8.53717 10.9388C8.58034 10.0899 9.20384 9.3801 10.048 9.23141C10.2014 9.20743 10.3165 9.08753 10.3453 8.93885C10.5468 7.89808 11.4628 7.14029 12.5228 7.14029C13.7458 7.14029 14.7434 8.13789 14.7434 9.36091C14.7434 9.98441 14.4796 10.5695 14.0288 10.9916C13.271 10.3393 12.3213 9.98441 11.3094 9.98441C11.1031 9.98441 10.94 10.1475 10.94 10.3537C10.94 10.56 11.1031 10.723 11.3094 10.723C12.2302 10.723 13.0983 11.0827 13.7458 11.7398C13.7458 11.7398 13.7458 11.7446 13.7506 11.7446C14.3933 12.3921 14.7434 13.2506 14.7434 14.1571C14.7434 15.03 14.4077 15.8693 13.813 16.5024C13.223 16.1187 12.5468 15.9173 11.8321 15.9173C11.6259 15.9173 11.4628 16.0803 11.4628 16.2866C11.4628 16.4928 11.6259 16.6559 11.8321 16.6559C12.4844 16.6559 13.0983 16.8669 13.6115 17.265C13.6163 17.2698 13.6163 17.2698 13.6211 17.2746C14.3309 17.8309 14.7386 18.6655 14.7386 19.5671C14.7386 20.2194 14.5276 20.8381 14.1247 21.3513C14.0096 21.5 14.024 21.7158 14.1631 21.8453C14.5324 22.1954 14.7386 22.6703 14.7386 23.1787C14.7386 24.1859 13.9185 25.0108 12.9065 25.0108C12.2926 25.0108 11.7266 24.7038 11.3861 24.1954C11.1847 23.8933 11.0791 23.5432 11.0791 23.1835C11.0791 22.9772 10.9161 22.8141 10.7098 22.8141C10.5036 22.8141 10.3405 22.9772 10.3405 23.1835C10.3405 23.4808 10.3933 23.7734 10.4892 24.0468C9.59233 23.9317 8.89209 23.1643 8.89209 22.2338C8.89209 21.9892 8.94005 21.7494 9.03597 21.524C9.32374 20.8429 9.98561 20.4065 10.7242 20.4065C11.2134 20.4065 11.6739 20.5983 12.0192 20.9436C12.1631 21.0875 12.3981 21.0875 12.542 20.9436C12.6859 20.7998 12.6859 20.5647 12.542 20.4209C12.0576 19.9365 11.4101 19.6679 10.7242 19.6679C9.80815 19.6679 8.97362 20.1523 8.51319 20.9245C7.7554 20.6127 7.1271 20.0324 6.76259 19.2842C6.67146 19.1019 6.45084 19.0252 6.26858 19.1115C6.08633 19.2026 6.00959 19.4233 6.09592 19.6055C6.53717 20.512 7.29976 21.2266 8.22542 21.6055C8.17266 21.8118 8.14868 22.018 8.14868 22.2338C8.14868 23.6487 9.29976 24.8046 10.7194 24.8046C10.7818 24.8046 10.8441 24.8046 10.9065 24.7998C11.3909 25.4041 12.1247 25.759 12.9065 25.759C13.5827 25.759 14.1966 25.4952 14.6523 25.0683C14.5276 26.2626 14.2542 26.982 13.8034 27.3513C11.5492 26.6751 9.52518 25.4856 7.95204 23.8933C5.88969 21.759 4.73861 19.0635 4.73861 16.277ZM15.9952 27.8118C15.5348 27.7446 15.0839 27.6583 14.6379 27.5528C15.2422 26.7758 15.4964 25.4233 15.4964 23.1691C15.4964 22.5743 15.2854 21.994 14.9113 21.5384C15.295 20.9484 15.4964 20.2674 15.4964 19.5576C15.4964 18.5695 15.1031 17.6391 14.4077 16.958C15.1031 16.1954 15.4964 15.1882 15.4964 14.1475C15.4964 13.1787 15.1655 12.2578 14.5612 11.5144C15.1511 10.958 15.4964 10.1763 15.4964 9.35611C15.4964 8.42566 15.3141 7.5048 14.9736 6.68465C14.7194 6.08034 14.3933 5.56715 14.0096 5.16906C14.6571 4.98201 15.3237 4.84293 16 4.74221C16.6811 4.84293 17.3429 4.98201 17.9904 5.16906C17.6067 5.56715 17.2758 6.08513 17.0264 6.68465C16.6859 7.5048 16.5036 8.42566 16.5036 9.35611C16.5036 10.1763 16.8489 10.958 17.4388 11.5144C16.8345 12.2578 16.5036 13.1787 16.5036 14.1475C16.5036 15.1882 16.8969 16.1954 17.5923 16.958C16.8969 17.6391 16.5036 18.5695 16.5036 19.5576C16.5036 20.2722 16.705 20.9484 17.0887 21.5384C16.7146 21.994 16.5036 22.5743 16.5036 23.1691C16.5036 25.4185 16.7578 26.771 17.3621 27.5528C16.9065 27.6583 16.4556 27.7446 15.9952 27.8118Z" />
  </symbol>

  <symbol id="almond" viewBox="0 0 32 32">
  <path d="M15.268 23.194C15.0196 23.119 14.7571 23.2597 14.6868 23.5081C14.0634 25.5986 12.0995 27.061 9.91524 27.061C7.16855 27.0563 4.93744 24.8252 4.93744 22.0832C4.93744 18.4037 6.23111 14.818 8.58408 11.9869L9.37621 11.0354C9.50746 10.8761 9.70432 10.7823 9.91056 10.7823C10.1168 10.7823 10.3137 10.8761 10.4449 11.0354L11.237 11.9869C13.0322 14.1477 14.2228 16.7538 14.6774 19.524C14.7196 19.7771 14.9587 19.9505 15.2165 19.9083C15.4696 19.8661 15.643 19.6271 15.6008 19.3693C15.118 16.4351 13.8572 13.6743 11.9589 11.387L11.1714 10.4308C10.8621 10.0558 10.4027 9.84021 9.91524 9.84021C9.42777 9.84021 8.96843 10.0558 8.65907 10.4308L7.86694 11.3823C5.37335 14.3821 4 18.1834 4 22.0832C4 25.3455 6.65295 27.9984 9.91524 27.9984C11.2136 27.9984 12.4463 27.5859 13.4822 26.8032C14.4806 26.0485 15.2305 24.9705 15.5868 23.7799C15.6571 23.5268 15.5164 23.2643 15.268 23.194Z" />
<path d="M9.69025 15.8539C9.46058 15.9758 9.37621 16.2617 9.49808 16.4867C10.2715 17.9257 10.7449 19.5474 10.8714 21.1739C10.8902 21.4176 11.0964 21.6051 11.3401 21.6051C11.3542 21.6051 11.3636 21.6051 11.3776 21.6051C11.6354 21.5864 11.8276 21.3614 11.8089 21.1036C11.6729 19.3224 11.1714 17.621 10.3277 16.0461C10.2058 15.8164 9.91992 15.732 9.69025 15.8539Z" />
<path d="M9.91524 24.0144C10.173 24.0144 10.384 23.8035 10.384 23.5457C10.384 23.2879 10.173 23.077 9.91524 23.077C9.36684 23.077 8.91687 22.6317 8.91687 22.0786C8.91687 21.4927 8.95906 20.9021 9.04811 20.3256C9.08561 20.0678 8.91218 19.8287 8.65439 19.7912C8.39659 19.7537 8.15754 19.9272 8.12005 20.1849C8.0263 20.8083 7.97943 21.4458 7.97943 22.0786C7.97943 23.1473 8.84656 24.0144 9.91524 24.0144Z" />
<path d="M9.91525 26.0064C12.0807 26.0064 13.8384 24.244 13.8384 22.0832C13.8384 21.8254 13.6275 21.6145 13.3697 21.6145C13.1119 21.6145 12.901 21.8254 12.901 22.0832C12.901 23.7284 11.5605 25.069 9.91525 25.069C9.65746 25.069 9.44653 25.2799 9.44653 25.5377C9.44653 25.7955 9.65746 26.0064 9.91525 26.0064Z" />
<path d="M12.9713 19.2053C13.0088 19.2053 13.0463 19.2006 13.0838 19.1912C13.3369 19.1303 13.4916 18.8772 13.4306 18.6241C13.1072 17.2835 12.5963 15.9946 11.9167 14.7946C11.7901 14.5697 11.5042 14.49 11.2792 14.6165C11.0542 14.7431 10.9745 15.029 11.1011 15.254C11.7385 16.3789 12.2166 17.5835 12.5213 18.8397C12.5682 19.06 12.7604 19.2053 12.9713 19.2053Z" />
<path d="M8.11068 15.4039C7.87632 15.2914 7.59977 15.3851 7.48259 15.6195C6.50766 17.6256 5.99207 19.8567 5.99207 22.0785C5.99207 22.3363 6.20299 22.5472 6.46079 22.5472C6.71858 22.5472 6.9295 22.3363 6.9295 22.0785C6.9295 19.9973 7.41229 17.9069 8.32629 16.032C8.43878 15.7976 8.34035 15.5211 8.11068 15.4039Z" />
<path d="M27.9938 17.2601L27.8813 16.0273C27.525 12.1463 25.8095 8.49033 23.0534 5.72958C20.7473 3.42347 16.9976 3.42347 14.6915 5.72958C12.3854 8.03568 12.3854 11.7854 14.6915 14.0915C17.4476 16.8476 21.1036 18.5631 24.9893 18.924L26.222 19.0365C26.2736 19.0412 26.3251 19.0412 26.372 19.0412C26.8032 19.0412 27.2157 18.8725 27.525 18.5631C27.8625 18.221 28.0359 17.7429 27.9938 17.2601ZM26.8548 17.9022C26.7095 18.0475 26.5032 18.1225 26.297 18.1038L25.0643 17.9913C21.3989 17.6538 17.9491 16.032 15.3477 13.4306C13.4072 11.4901 13.4072 8.33097 15.3477 6.39047C16.2898 5.44834 17.5366 4.93275 18.8678 4.93275C20.1989 4.93275 21.4457 5.44834 22.3879 6.39047C24.9893 8.99187 26.611 12.4463 26.9485 16.107L27.061 17.3398C27.0751 17.5507 27.0048 17.7569 26.8548 17.9022Z" />
<path d="M18.8631 8.91686C19.1303 8.91686 19.3787 9.01998 19.5662 9.20746C19.9787 9.61994 20.3677 10.0699 20.7146 10.5386C20.8083 10.6652 20.9489 10.7308 21.0942 10.7308C21.1927 10.7308 21.2864 10.7027 21.3708 10.6371C21.577 10.4824 21.6239 10.1918 21.4692 9.98085C21.0942 9.46995 20.6771 8.98717 20.2318 8.54188C19.8662 8.17628 19.3834 7.97473 18.8631 7.97473C18.3475 7.97473 17.8601 8.17628 17.4945 8.54188C17.3117 8.72468 17.3117 9.01998 17.4945 9.20278C17.6773 9.38558 17.9726 9.38558 18.1554 9.20278C18.3475 9.01998 18.6006 8.91686 18.8631 8.91686Z" />
<path d="M23.1144 13.576C21.5489 13.1026 20.0677 12.2917 18.8256 11.2324C18.6287 11.0637 18.3334 11.0871 18.1647 11.2839C17.996 11.4808 18.0194 11.7761 18.2163 11.9448C19.5709 13.1073 21.127 13.9557 22.8425 14.4759C22.8894 14.49 22.9316 14.4947 22.9785 14.4947C23.18 14.4947 23.3675 14.3634 23.4284 14.1619C23.4987 13.9088 23.3581 13.651 23.1144 13.576Z" />
<path d="M21.6379 7.13576C21.4551 6.95296 21.1598 6.95296 20.977 7.13576C20.7942 7.31856 20.7942 7.61385 20.977 7.79665C22.4488 9.26843 23.5831 11.0871 24.2674 13.0604C24.333 13.2525 24.5158 13.3744 24.7127 13.3744C24.7643 13.3744 24.8158 13.365 24.8674 13.3463C25.1111 13.2619 25.2424 12.9948 25.158 12.751C24.4268 10.6512 23.2128 8.70597 21.6379 7.13576Z" />
<path d="M22.8566 15.5726C21.6098 15.2305 20.4193 14.7149 19.3178 14.0399C19.0975 13.904 18.8069 13.9743 18.6756 14.1946C18.5397 14.4149 18.61 14.7055 18.8303 14.8368C20.0068 15.5586 21.2817 16.107 22.6082 16.4726C22.6504 16.482 22.6925 16.4913 22.7347 16.4913C22.941 16.4913 23.1285 16.3554 23.1847 16.1492C23.2503 15.8961 23.105 15.6383 22.8566 15.5726Z" />
<path d="M16.7539 7.13576C16.5711 6.95296 16.2758 6.95296 16.093 7.13576C14.565 8.66378 14.565 11.1574 16.093 12.6854C16.1867 12.7791 16.3039 12.8213 16.4258 12.8213C16.5476 12.8213 16.6648 12.7745 16.7586 12.6854C16.9414 12.5026 16.9414 12.2073 16.7586 12.0245C15.5961 10.8621 15.5961 8.96376 16.7586 7.80134C16.9367 7.61854 16.9367 7.31856 16.7539 7.13576Z" />
<path d="M15.3524 21.0754C15.2305 21.0754 15.1087 21.127 15.0196 21.2114C14.9305 21.3004 14.8837 21.4176 14.8837 21.5442C14.8837 21.666 14.9352 21.7879 15.0196 21.877C15.1087 21.966 15.2258 22.0129 15.3524 22.0129C15.4789 22.0129 15.5961 21.9613 15.6852 21.877C15.7742 21.7879 15.8211 21.6707 15.8211 21.5442C15.8211 21.4176 15.7695 21.3004 15.6852 21.2114C15.5961 21.1223 15.4743 21.0754 15.3524 21.0754Z" />
  </symbol>

  <symbol id="milk" viewBox="0 0 32 20" >
  <path d="M8.48126 5.44995C8.74015 5.44995 8.95001 5.24009 8.95001 4.9812C8.95001 4.72232 8.74015 4.51245 8.48126 4.51245C8.22238 4.51245 8.01251 4.72232 8.01251 4.9812C8.01251 5.24009 8.22238 5.44995 8.48126 5.44995Z" />
<path d="M11.4875 5.44995C11.7464 5.44995 11.9562 5.24009 11.9562 4.9812C11.9562 4.72232 11.7464 4.51245 11.4875 4.51245C11.2286 4.51245 11.0187 4.72232 11.0187 4.9812C11.0187 5.24009 11.2286 5.44995 11.4875 5.44995Z" />
<path d="M9.98126 7.4187C10.2401 7.4187 10.45 7.20884 10.45 6.94995C10.45 6.69107 10.2401 6.4812 9.98126 6.4812C9.72238 6.4812 9.51251 6.69107 9.51251 6.94995C9.51251 7.20884 9.72238 7.4187 9.98126 7.4187Z" />
<path d="M12.9875 7.4187C13.2464 7.4187 13.4562 7.20884 13.4562 6.94995C13.4562 6.69107 13.2464 6.4812 12.9875 6.4812C12.7286 6.4812 12.5187 6.69107 12.5187 6.94995C12.5187 7.20884 12.7286 7.4187 12.9875 7.4187Z" />
<path d="M3.9375 7.4187C4.19638 7.4187 4.40625 7.20884 4.40625 6.94995C4.40625 6.69107 4.19638 6.4812 3.9375 6.4812C3.67862 6.4812 3.46875 6.69107 3.46875 6.94995C3.46875 7.20884 3.67862 7.4187 3.9375 7.4187Z" />
<path d="M6.97498 7.4187C7.23386 7.4187 7.44373 7.20884 7.44373 6.94995C7.44373 6.69107 7.23386 6.4812 6.97498 6.4812C6.71609 6.4812 6.50623 6.69107 6.50623 6.94995C6.50623 7.20884 6.71609 7.4187 6.97498 7.4187Z" />
<path d="M9.98126 3.47498C10.2401 3.47498 10.45 3.26511 10.45 3.00623C10.45 2.74734 10.2401 2.53748 9.98126 2.53748C9.72238 2.53748 9.51251 2.74734 9.51251 3.00623C9.51251 3.26511 9.72238 3.47498 9.98126 3.47498Z" />
<path d="M6.97498 3.47498C7.23386 3.47498 7.44373 3.26511 7.44373 3.00623C7.44373 2.74734 7.23386 2.53748 6.97498 2.53748C6.71609 2.53748 6.50623 2.74734 6.50623 3.00623C6.50623 3.26511 6.71609 3.47498 6.97498 3.47498Z" />
<path d="M5.50623 5.44995C5.76511 5.44995 5.97497 5.24009 5.97497 4.9812C5.97497 4.72232 5.76511 4.51245 5.50623 4.51245C5.24734 4.51245 5.03748 4.72232 5.03748 4.9812C5.03748 5.24009 5.24734 5.44995 5.50623 5.44995Z" />
<path d="M30.525 8.01875H26.0563C25.7938 8.01875 25.5875 8.23125 25.5875 8.4875C25.5875 8.75 25.8 8.95625 26.0563 8.95625H30.525C30.8188 8.95625 31.0563 9.19375 31.0563 9.4875V9.64375C31.0563 9.90625 30.8688 10.125 30.6125 10.1687L16.4188 12.5312C16.1938 12.5688 16.025 12.7625 16.025 12.9937V15.5C16.025 17.45 14.4375 19.0375 12.4875 19.0375H4.46875C2.51875 19.0375 0.93125 17.45 0.93125 15.5V8.95625H23.7438C24.0063 8.95625 24.2125 8.74375 24.2125 8.4875C24.2125 8.225 24 8.01875 23.7438 8.01875H16.8063C16.5375 7.375 15.8375 5.80625 14.7438 4.2125C12.8563 1.45625 10.6875 0 8.48125 0C6.275 0 4.1 1.45625 2.20625 4.2125C0.8125 6.2375 0.05625 8.2375 0.025 8.31875V8.325C0.01875 8.3375 0.01875 8.35 0.0125 8.3625C0.0125 8.36875 0.0125 8.36875 0.00625 8.375C0 8.3875 0 8.4 0 8.41875C0 8.425 0 8.425 0 8.43125C0 8.45 0 8.46875 0 8.48125V15.5C0 17.9688 2.00625 19.975 4.475 19.975H12.4938C14.9625 19.975 16.9688 17.9688 16.9688 15.5V13.3938L30.7688 11.0938C31.4813 10.975 32 10.3625 32 9.64375V9.4875C31.9938 8.675 31.3313 8.01875 30.525 8.01875ZM8.48125 0.9375C12.3125 0.9375 14.9688 6.16875 15.7938 8.0125H1.16875C1.9875 6.16875 4.64375 0.9375 8.48125 0.9375Z" />
  </symbol>

  <symbol id="sugar" viewBox="0 0 24 25">
  <path d="M0.18761 21.5505C3.66777 23.7268 3.43795 23.6142 3.60211 23.6142C3.76627 23.6142 3.5599 23.708 6.80555 21.6865C10.0559 23.7174 9.84952 23.6142 10.009 23.6142C10.1685 23.6142 10.009 23.6846 12.6261 22.0477C12.8138 21.9304 12.87 21.6818 12.7528 21.4942C12.6355 21.3066 12.3869 21.2503 12.1993 21.3676L10.0043 22.7418L7.20422 20.9924V18.2345L8.66758 17.3199C8.85519 17.2027 8.91147 16.9541 8.79422 16.7665C8.67696 16.5789 8.42838 16.5226 8.24077 16.6398L6.80555 17.5404L4.00547 15.7909V13.033L6.80555 11.2836C8.3674 12.2591 8.26422 12.2122 8.37678 12.231C8.56439 12.2638 8.752 12.1653 8.82236 11.9871C8.89271 11.8089 8.82705 11.6072 8.66758 11.504L7.20422 10.5894V7.83154L10.0043 6.08208L12.8044 7.83154V8.40844C12.8044 8.62888 12.9826 8.80711 13.203 8.80711C13.4235 8.80711 13.6017 8.62888 13.6017 8.40844V7.83154L16.4018 6.08208L19.2019 7.83154V10.8098C19.2019 11.0303 19.3801 11.2085 19.6005 11.2085C19.821 11.2085 19.9992 11.0303 19.9992 10.8098V7.60641C19.9992 7.47039 19.9289 7.33907 19.8116 7.26871L16.7958 5.38323V2.40023C16.7958 2.26422 16.7254 2.13289 16.6082 2.06254L13.4188 0.0598007C13.2875 -0.0199336 13.1233 -0.0199336 12.9967 0.0598007L10.009 1.92652L7.01661 0.0598007C6.88528 -0.0199336 6.72113 -0.0199336 6.59449 0.0598007L3.39105 2.06254C3.27379 2.13758 3.20344 2.26422 3.20344 2.40023V5.37854L0.18761 7.26402C0.0703537 7.33907 0 7.4657 0 7.60172V10.8052C0 10.9412 0.0703537 11.0725 0.18761 11.1429L3.20344 13.0283V15.7862L0.18761 17.6717C0.0703537 17.7467 0 17.8734 0 18.0094V21.2128C0 21.3488 0.0703537 21.4755 0.18761 21.5505ZM13.2077 0.871214L16.0078 2.62068V5.37854L13.2077 7.12801L10.4077 5.37854V2.62068L13.2077 0.871214ZM6.80555 0.871214L9.60563 2.62068V5.37854L6.80555 7.12801L4.00547 5.37854V2.62068L6.80555 0.871214ZM0.802032 7.82685L3.60211 6.07739L6.40219 7.82685V10.5847L3.60211 12.3342L0.802032 10.5847V7.82685ZM0.802032 18.2298L3.60211 16.4804L6.40219 18.2298V20.9877L3.60211 22.7372L0.802032 20.9877V18.2298Z" />
<path d="M18.4092 12.0105V11.6072C18.4092 10.9083 18.0997 10.2423 17.5697 9.78265L17.9684 8.98062C18.0668 8.78363 17.9824 8.54443 17.7854 8.44593C17.5884 8.34744 17.3492 8.42717 17.2507 8.62416L16.8802 9.36991C16.3221 9.14947 15.6983 9.14947 15.1354 9.36991L14.7649 8.62416C14.7039 8.49283 14.5726 8.40841 14.4319 8.39903C14.2865 8.38965 14.1505 8.46 14.0708 8.57726C13.991 8.6992 13.9816 8.84929 14.0473 8.98062L14.446 9.78265C13.9113 10.2376 13.6017 10.9036 13.6017 11.6072V12.0105C13.2359 12.0058 12.8419 12.0058 12.401 12.0058C10.2763 12.0058 7.99689 12.972 7.99689 14.4072C7.99689 16.1332 11.2472 17.0385 12.8654 16.7664C12.8278 17.0854 12.7997 17.5216 12.7997 17.8124C12.7997 20.6124 14.0004 22.8497 15.5998 23.1733V23.6189C15.5998 23.8393 15.778 24.0176 15.9985 24.0176C16.2189 24.0176 16.3971 23.8393 16.3971 23.6189V23.1686C17.9965 22.845 19.1972 20.6077 19.1972 17.8077C19.1972 17.5216 19.1691 17.0807 19.1315 16.7664C20.7684 17.0385 24 16.1239 24 14.4072C24 12.972 21.7252 12.0058 19.5959 12.0058C19.1925 12.0058 18.7845 12.0058 18.4092 12.0105ZM14.4085 11.6072C14.4085 10.7207 15.1261 10.0078 16.0078 10.0078C16.8943 10.0078 17.6072 10.7254 17.6072 11.6072V12.0293C17.0678 12.0199 16.5238 12.0996 16.0078 12.2591C15.4919 12.0903 14.9478 12.0152 14.4038 12.0293V11.6072H14.4085ZM16.0125 14.1587C16.2001 14.5339 16.43 14.8856 16.702 15.2046H15.3184C15.5857 14.8856 15.8202 14.5339 16.0125 14.1587ZM8.80361 14.4072C8.80361 13.6849 10.464 12.8079 12.4057 12.8079C13.2078 12.8079 15.0979 12.7938 15.5951 12.9533C15.4591 13.9148 14.0614 16.0113 12.4057 16.0113C10.4686 16.0066 8.80361 15.1295 8.80361 14.4072ZM14.4929 16.0066H17.5181C17.762 16.1989 18.0246 16.3631 18.3014 16.4991C18.3154 16.6023 18.3295 16.7055 18.3436 16.8086H15.6092C15.3887 16.8086 15.2105 16.9869 15.2105 17.2073C15.2105 17.4278 15.3887 17.606 15.6092 17.606H18.3999C18.4186 17.8733 18.4139 18.1407 18.3858 18.408H13.6299C13.6017 18.1407 13.597 17.8733 13.6158 17.606H14.0051C14.2255 17.606 14.4038 17.4278 14.4038 17.2073C14.4038 16.9869 14.2255 16.8086 14.0051 16.8086H13.6721C13.6862 16.7008 13.7002 16.5976 13.7143 16.4897C13.9957 16.3584 14.2537 16.1989 14.4929 16.0066ZM14.2068 20.8094H16.0078C16.2283 20.8094 16.4065 20.6312 16.4065 20.4108C16.4065 20.1903 16.2283 20.0121 16.0078 20.0121H13.9113C13.8362 19.7494 13.7753 19.4821 13.7284 19.21H18.292C18.2451 19.4821 18.1841 19.7494 18.1091 20.0121H17.6119C17.3915 20.0121 17.2132 20.1903 17.2132 20.4108C17.2132 20.6312 17.3915 20.8094 17.6119 20.8094H17.8136C16.838 22.9435 15.1823 22.9435 14.2068 20.8094ZM23.2121 14.4072C23.2121 15.4016 20.2384 16.4053 18.8126 15.8518C17.6213 15.289 16.7442 14.229 16.4206 12.9533C16.9975 12.7797 18.7282 12.8079 19.6099 12.8032C21.5517 12.8079 23.2121 13.6849 23.2121 14.4072Z" />
  </symbol>

  <symbol id="cacao" viewBox="0 0 24 19">
  <path d="M11.3672 3.05625C11.2031 2.85 10.9031 2.81719 10.6969 2.98125C10.4484 3.17813 10.1531 3.28594 9.83438 3.28594C9.51563 3.28594 9.22032 3.18282 8.97188 2.98125C8.76563 2.81719 8.46563 2.85 8.30157 3.05625C8.1375 3.2625 8.17032 3.5625 8.37657 3.72656C8.78907 4.05938 9.30938 4.2375 9.83907 4.2375C10.3688 4.2375 10.8891 4.05469 11.3016 3.72656C11.4984 3.5625 11.5313 3.2625 11.3672 3.05625Z" />
<path d="M23.6531 9.80156C23.2687 8.74688 22.6031 7.84219 21.7265 7.18594C21.1031 6.72188 20.3953 6.40313 19.6312 6.23906C19.7953 4.73438 19.3265 3.17344 18.3468 1.9875C17.2875 0.707813 15.764 0 14.0578 0H13.7812C12.5859 0 11.4281 0.421875 10.4297 1.22344C10.2562 1.35938 10.05 1.43438 9.82966 1.43438C9.60935 1.43438 9.4031 1.35938 9.22966 1.22344C8.23591 0.421875 7.0781 0 5.88279 0H5.60623C4.37342 0 3.22029 0.375 2.27342 1.07813C1.39217 1.73438 0.726543 2.63438 0.346856 3.69375C-0.0328314 4.74375 -0.103144 5.85938 0.154668 6.91875C0.426543 8.0625 1.06873 9.07969 2.01092 9.86719C2.7281 10.4672 3.5156 10.9828 4.34998 11.4C4.31717 11.9484 4.36404 12.4922 4.4906 13.0266C4.76248 14.1703 5.40467 15.1875 6.34685 15.975C8.53591 17.8031 11.3156 18.8063 14.1703 18.8063C17.025 18.8063 19.8047 17.7984 21.9937 15.975C22.9359 15.1875 23.5781 14.1703 23.85 13.0266C24.1031 11.9672 24.0375 10.8516 23.6531 9.80156ZM4.49998 10.4016C3.83435 10.0453 3.20623 9.61875 2.62029 9.13125C0.792168 7.60781 0.712481 5.48906 1.24217 4.01719C1.77654 2.53594 3.20623 0.95625 5.60154 0.95625H5.8781C6.8531 0.95625 7.80466 1.30781 8.62966 1.96875C8.96716 2.24063 9.39373 2.39063 9.82498 2.39063C10.2562 2.39063 10.6828 2.24063 11.0203 1.96875C11.8453 1.30313 12.7968 0.95625 13.7718 0.95625H14.0484C15.464 0.95625 16.725 1.5375 17.6015 2.59688C18.4172 3.58125 18.8015 4.87031 18.675 6.1125C18.5812 6.10781 18.4828 6.10313 18.3843 6.10313H18.1078C16.9125 6.10313 15.7547 6.525 14.7562 7.32656C14.5828 7.4625 14.3765 7.5375 14.1562 7.5375C13.9359 7.5375 13.7297 7.4625 13.5562 7.32656C12.5578 6.525 11.4 6.10313 10.2047 6.10313H9.9281C8.69529 6.10313 7.54685 6.47813 6.59529 7.18125C5.71404 7.8375 5.04842 8.7375 4.66873 9.79688C4.60779 9.99844 4.54685 10.2 4.49998 10.4016ZM21.3797 15.2391C19.364 16.9219 16.8 17.85 14.1703 17.85C11.5406 17.85 8.97185 16.9219 6.95623 15.2391C5.1281 13.7156 5.04842 11.5969 5.5781 10.125C6.11248 8.64375 7.54216 7.06406 9.93748 7.06406H10.214C11.189 7.06406 12.1406 7.41563 12.9656 8.07656C13.3031 8.34844 13.7297 8.49844 14.1609 8.49844C14.5922 8.49844 15.0187 8.34844 15.3562 8.07656C16.1812 7.41094 17.1328 7.06406 18.1078 7.06406H18.3843C20.7797 7.06406 22.2093 8.64844 22.7437 10.125C23.2875 11.5969 23.2078 13.7156 21.3797 15.2391Z" />
<path d="M15.6234 9.09849C15.4593 8.89224 15.1593 8.85943 14.9531 9.02349C14.7047 9.22037 14.4093 9.32818 14.0906 9.32818C13.7718 9.32818 13.4765 9.22505 13.2281 9.02349C13.0219 8.85943 12.7219 8.89224 12.5578 9.09849C12.3937 9.30474 12.4265 9.60474 12.6328 9.7688C13.0453 10.1016 13.5656 10.2797 14.0953 10.2797C14.625 10.2797 15.1453 10.0969 15.5578 9.7688C15.7593 9.60474 15.7922 9.30474 15.6234 9.09849Z" />
<path d="M19.3171 15.4453C19.1953 15.2109 18.9093 15.1172 18.6749 15.239C17.2734 15.9562 15.7593 16.3219 14.1703 16.3219C13.9078 16.3219 13.6921 16.5375 13.6921 16.8C13.6921 17.0625 13.9078 17.2781 14.1703 17.2781C15.9093 17.2781 17.5734 16.8797 19.1109 16.0875C19.3453 15.9703 19.4343 15.6797 19.3171 15.4453Z" />
<path d="M21.1688 14.0953C21 13.8937 20.7 13.8656 20.4938 14.0344C20.3813 14.1281 20.2688 14.2172 20.1563 14.3062C19.9453 14.4656 19.9078 14.7656 20.0672 14.9765C20.1609 15.0984 20.3016 15.164 20.4469 15.164C20.55 15.164 20.6484 15.1312 20.7375 15.0656C20.8641 14.9719 20.9859 14.8687 21.1078 14.7703C21.3094 14.5969 21.3375 14.2969 21.1688 14.0953Z" />
  </symbol>

  <symbol id="arrows" viewBox="0 0 15 29">
  <path d="M14 28L1.91422 15.9142C1.13317 15.1332 1.13317 13.8668 1.91421 13.0858L14 1" stroke="black" stroke-width="2" stroke-linecap="round"/>
  </symbol>

  <symbol id="volume" viewBox="0 0 14 17">
  <path d="M11.1882 0.765597L5.01572 5.67385C4.56951 5.43215 4.05824 5.30201 3.51907 5.30201C1.77144 5.30201 0.358459 6.71499 0.358459 8.46262C0.358459 10.2103 1.77144 11.6232 3.51907 11.6232C4.05824 11.6232 4.56951 11.4838 5.01572 11.2514L11.1882 16.1689C11.997 16.8104 13.1868 16.234 13.1868 15.2022V1.72308C13.1868 0.69123 11.997 0.114883 11.1882 0.765597Z"/>
  </symbol>

  <symbol id="play" viewBox="0 0 46 67">
  <path d="M43.2442 37.3898L8.62989 64.9671C5.32061 67.5918 0.451782 65.2334 0.451782 61.0112V5.85654C0.451782 1.63436 5.32061 -0.723981 8.62989 1.90062L43.2442 29.478C45.7547 31.494 45.7547 35.3738 43.2442 37.3898Z" />
  </symbol>
</svg>
